/* XPM */
static char *cameras[] = {
/* columns rows colors chars-per-pixel */
"50 46 233 2 ",
"   c #0E0F0C",
".  c #0F110E",
"X  c #10110E",
"o  c #0F1110",
"O  c #141513",
"+  c #161815",
"@  c #191917",
"#  c #1C1C1B",
"$  c #171817",
"%  c #100F0C",
"&  c #221F1E",
"*  c #251C18",
"=  c #371D1B",
"-  c #1E211E",
";  c #21211E",
":  c #29201C",
">  c #35241E",
",  c #1E1D20",
"<  c #1F2120",
"1  c #242423",
"2  c #292524",
"3  c #262826",
"4  c #2A2926",
"5  c #2C2B2B",
"6  c #262729",
"7  c #322D2C",
"8  c #352927",
"9  c #31302F",
"0  c #3B312E",
"q  c #2E2D30",
"w  c #312F33",
"e  c #343333",
"r  c #3B3534",
"t  c #3A3936",
"y  c #3A3738",
"u  c #3C3B3B",
"i  c #343539",
"p  c #2E302E",
"a  c #42221B",
"s  c #562D2A",
"d  c #433534",
"f  c #433D3C",
"g  c #4B3C3B",
"h  c #493834",
"j  c #543A38",
"k  c #48322C",
"l  c #67322E",
"z  c #4A423E",
"x  c #53423B",
"c  c #68463C",
"v  c #78483D",
"b  c #443F40",
"n  c #444243",
"m  c #4B4443",
"M  c #4C4B4B",
"N  c #474649",
"B  c #524542",
"V  c #524946",
"C  c #534C4C",
"Z  c #5A4E4C",
"A  c #5C4644",
"S  c #5C524C",
"D  c #54524D",
"F  c #4E4D52",
"G  c #4E4650",
"H  c #554D51",
"J  c #535253",
"K  c #5B5454",
"L  c #5B5B5A",
"P  c #565559",
"I  c #4F5056",
"U  c #614E4B",
"Y  c #654B46",
"T  c #734C42",
"R  c #63524B",
"E  c #6A544C",
"W  c #77544B",
"Q  c #635552",
"!  c #645B5B",
"~  c #695955",
"^  c #785A55",
"/  c #5F615E",
"(  c #68615D",
")  c #7D635A",
"_  c #5C5C62",
"`  c #605D63",
"'  c #636264",
"]  c #6C6364",
"[  c #69676B",
"{  c #746564",
"}  c #7A6A65",
"|  c #73696A",
" . c #7A6D6C",
".. c #786565",
"X. c #686873",
"o. c #786D70",
"O. c #747474",
"+. c #7C7B7B",
"@. c #78757A",
"#. c #6F707C",
"$. c #865349",
"%. c #915B52",
"&. c #86554F",
"*. c #8A6359",
"=. c #956457",
"-. c #A2675A",
";. c #886B64",
":. c #8B746B",
">. c #83736D",
",. c #957369",
"<. c #827573",
"1. c #857D7C",
"2. c #897775",
"3. c #997B77",
"4. c #A97769",
"5. c #B97969",
"6. c #BA7971",
"7. c #AA7369",
"8. c #C67D6C",
"9. c #85817F",
"0. c #9A837A",
"q. c #9A806F",
"w. c #AA8477",
"e. c #B88879",
"r. c #C98978",
"t. c #7A7985",
"y. c #7E8090",
"u. c #838182",
"i. c #8B8A8B",
"p. c #8B8485",
"a. c #928484",
"s. c #988A86",
"d. c #96918C",
"f. c #878692",
"g. c #988F90",
"h. c #939292",
"j. c #9B9393",
"k. c #9C9A9A",
"l. c #97969A",
"z. c #A58B87",
"x. c #BA8C85",
"c. c #B69488",
"v. c #A79A97",
"b. c #B89D95",
"n. c #A79589",
"m. c #ABA29D",
"M. c #B1A39A",
"N. c #BCA49C",
"B. c #9998A6",
"V. c #8E90A1",
"C. c #A09BA8",
"Z. c #9FA2AA",
"A. c #A7A5A8",
"S. c #B6A9A6",
"D. c #BBB1AF",
"F. c #ADACBB",
"G. c #A9A9B6",
"H. c #B7B4B4",
"J. c #BCB6B6",
"K. c #B4B4BC",
"L. c #BBBAB9",
"P. c #C38C82",
"I. c #C99888",
"U. c #D39C8B",
"Y. c #C9A698",
"T. c #D8A897",
"R. c #DBB19F",
"E. c #E8AC9A",
"W. c #F9B39B",
"Q. c #C3ACA7",
"!. c #C8B6A9",
"~. c #D4B7A8",
"^. c #CDBEB4",
"/. c #C2BAB9",
"(. c #D4BDB4",
"). c #EBB9A8",
"_. c #F5B9A9",
"`. c #E7ADA3",
"'. c #E69885",
"]. c #DAC5B3",
"[. c #D8C7BA",
"{. c #D1C2B5",
"}. c #E9C1AE",
"|. c #E2CCBB",
" X c #E5C7B7",
".X c #F5C8B5",
"XX c #E8D2BE",
"oX c #F5C1AB",
"OX c #BCBDCC",
"+X c #B8B9C4",
"@X c #B5B7CB",
"#X c #C3C3C3",
"$X c #CDCCCC",
"%X c #C9C6C8",
"&X c #DFCCC5",
"*X c #D9D0C9",
"=X c #C9CAD5",
"-X c #D4CFD1",
";X c #D4D3D3",
":X c #DCDBDA",
">X c #D5D5DA",
",X c #CFD1DA",
"<X c #E1CAC2",
"1X c #EAD5C4",
"2X c #E9D6C8",
"3X c #F2DDCC",
"4X c #F2D8C5",
"5X c #E3DBD3",
"6X c #EDDED3",
"7X c #E1DEDF",
"8X c #DFE0DE",
"9X c #F6E1CF",
"0X c #E7E2DC",
"qX c #F4E2D3",
"wX c #FBE5D4",
"eX c #F3E6DA",
"rX c #FAE9DC",
"tX c #F9E7DA",
"yX c #D6D7E3",
"uX c #E3E3E4",
"iX c #EEEDED",
"pX c #EBE7E5",
"aX c #F4EBE4",
"sX c #F2EEEB",
"dX c #FBECE4",
"fX c #EDF0EF",
"gX c #F4F1EE",
"hX c #F9F0E9",
"jX c #EEEEF1",
"kX c #F1EFF1",
"lX c #EEF1F1",
"zX c #F2F2F2",
"xX c #F6F7F8",
/* pixels */
"xXzXzXzXiXxXzXfXzXfXzXzXfXxXgXzXxXiXxXfXzXxXiXzXzXiXxXiX-X:X2.z.iXlXxXsXxXkXjXxXiXzXxXiXxXgXzXxXiXxX",
"gXzXzXlXzXzXzXsXpXgXlXzXzXgXzXzXlXzXzXgXzXzXzXzXzXzXlX%X9.v.R W N.xXkXzXzXzXxXsXzXzXgXzXiXzXzXjXzXgX",
"jXzXzXgXzXlXzX0X0XJ.$XiXzXlXzXlXgXzXiXzXzXiXzXgXzXlXlXv...3.W r.;.sXkXzXiXsXzXlXzXlXzXzXkXzXzXzXzXzX",
"xXiXfXzXfXlXlXk.( Z j 2.iXgXfXgXxXiXxXlXiXxXiXzXzXpXi.^ x.&.e.E.I.1.iXiXxXlXiXxXiXzXzXiXxXkXkXzXiXxX",
"iXzXzXiXxXfXzX@.j s %.T :XjXxXkXiXxXiXzXzXiXxXiXkX;XD.b.s.Q ;.=.4.f C h.pXlXxXiXxXfXkXxXiXzXzXkXxXiX",
"zXzXzXzXfXgXaXb.s r.'.$.%XzXjXkXzXiXzXzXgXzXlXzXzX/.4X).U M ~ Y.h r N C i.jXsXzXsXzXzXzXzXiXzXzXiXzX",
"zXzXzXzXaX&Xb.<.! ^ 5.7.2XlXzXzXzXzXzXzXlXzXzXzXkXA.3X X0.Z E R.8 7 N H n ;XzXzXzXzXzXzXzXzXkXzXzXzX",
"gXzXzXjX<X).x.y y r -.Y.hXjXzXzXzXzXiXzXzXiXzXiXkXS.T.h :.c.E.).8 q f 5 L jXzXiXzXzXpX^.~.{.kXkXxXiX",
"xXiXjX>X~.E.I.8 # W T.2.OXpXjXkXxXiXxXzXfXxXiXxX=X<X,.e 5 } x.`...9 r K 9.m.A.^.tXrX2Xe.7.-.b.zXiXxX",
"iXxXjXA.x.6.W U A ,._.Q.K.+XiXkXzXzXiXlXzXiXxX$Xt.$XZ u 1 @.o.s.~ C { | |  .<.I.Y.).~.U.6.-.,.kXxXiX",
"zXjX,XK.x.%.H [ h Y r.x.C.F.OXkXzXzXzXzXzXzXlXO.! #.N h.6 B._ u.2 N H Z m r 7 V ~ :...w.U.6.c.sXzXzX",
"zXjX=X,XS.H I F K : ^ v.B.G.+XkXxXiXzXgXzXzXiXp 2 , :XuXF B.X.6 5 , 4 2 ; & 2 7 ;.S Q ^ 3.`.3.J.sXzX",
"jXjXOXOXC.N G F Z m ' B.Z.@XF.jXiXxXiXzXzXpXzXt $ A.lXuX#.B.X.# 1 1 O + 5 5 ; ; w.c.&.4.4.P.Y ..;XiX",
"xX,XOX@Xf.G G I ..] X.B.G.B.F.uXzXjXxX/.L 2 f k.=XlXxX+X#.B.f., + - + + ' iXK ; c.).).4.P.W m ..k.xX",
"jX=X@XZ.y.t._ _ 2.1.F t.B.@XG.yXiXgXpX} Y T l j sXzXlXf.t.G.B.q # ; f 9 9 j.%X- j I.e.W Y * V ..s.jX",
"uXOXG.y.B.@XX.X.w.9.J X.V.B.@XA.' ^.qX4XR.-.U.w.#XiXuX' t.G.+Xv.!.{.E 8 d R /.m 9 ~ ~ ( 5 7 ! } a.jX",
"xXOXl.u.F.@Xf.o.z.a.H F f.V.B.B.L q.Y.~.e.)..XU.A.A.%X_ i.2XtXwX9X4XU.c Q b ..u.6 e Q ! ( R { o.| %X",
"jXuX%XG.N P i.E N.eXb.d N h.A.N.:.*  .D <.e.-. .2 O.l.+.6X4XY.) Y.Y.^ _.T b H 1.6 1 f Z ~ ..{ @.! A.",
"xXfXzX@.5 4 :.v Y ! Y h @.v.d.<.S t ! u Z W s e 1 u i $XaXM.r 6 b m V Y.e.3.u.J.5 2 5 m Z Q ~ { Z i.",
"zXlXzXd.6 x 4._.^ S a j <...Q 8 0 S  X*.%.-.$.T e n 5 e f 1 - e 0 g u g l Y u.7X9 4 6 0 m S K z r h.",
"iXzXzXi.i x e..Xx.^ T k V f & 1 # 8 I.5.8.v $.j 5 4 # O O O O V ^ C ;.6.%.;.~ D.z 5 4 5 0 B z z } H.",
"xXiXlX@.u 2.}.e.~ S :.w.7 5 y #.+.r h =.r.*.d 5 4 - @ X . X O g ~.r.E.8.8.5.A z M.n.S 9 d E n.XX6XsX",
"lXzXxXX.M XX}.c.r z x }.R N M L 1.+.q ;.E.:.9 1 # + X X . O + + R.W.W.r.P.c j 2 9 0.!.!.{.{.].XXqXsX",
"zXzXzX+.] 4X).,.z V W T.c.N H L f 6 1 ( 3.+.x f 4 @ @ 1 9 * @ # c._.).c.j j = 1 p 9 d.Y.Q.!.].XXtXsX",
"zXzXiXi.X. XT.h ;.W U.)..X:.V K y | 2 ..2.2...>.{ m f n e # # # x .X.X*.h = # ; 4 4 x D.*X{.|.3XtXsX",
"iXzXfXA.L  XP.> S 4.x...Y..X<.b M M u B  .2. ...{ Z y e 2 - # - : M.4Xv.* * - 1 - 3 d.5X0X[.XXqXtXsX",
"xXzXgXZ.g..XY 2 1 i.' p 0 ~.[.Z K F f r Q ! ~ b z r 7 6 + - # # ] D.0XH.@ - ; @ ; :.{.pXgX[.9XwXrXgX",
"zXzXzXB.(.U.e * , t e _ i ! s.K P K f e t ~ B f 7 e 5 2 @ # - f 2.L.;Xt 2 # - 1 4 ~.|.sXgX*X3XrXrXsX",
"jXxXjXl.z.*.& 6 1 u 6 e u t m C F C H y & b g 7 5 e 6 < # # 5 ( O.z 9 3 3 3 3 4 S 9X3XgXiX5X1XwXdXsX",
"xXlXK.' { j @.M e t - 5 t 3 9 e f N J n # r d 1 5 5 6 1 @ O { a.O.- ; ; 3 3 3 p N.4X6XfXxX5X1XwXrXsX",
"jXzX@.I M u p.#Xu u 6 4 u 6 2 1 z N C u M | K + 5 5 2 < @ 1 a.v.0.. + - - 3 3 S 1X9X6XzXjXpX|.3XtXsX",
"zXjX' n 5 < u.pX[ u M - u 5 2 O + 5 u 5 m [ b O p 6 2 1 #   v.v.d.> O - - - - M.1X1XqXgXzXeX3X4XwXhX",
"zXlX[ 5 # O O._ # e e 6 5 e 2 $ X 4 t t y b 5 $ 6 5 2 ; # @ S.S.a.| X + # # 1 M.1X4X3XsXzXaX9X9XwXaX",
"uXl.F 1 @ # # , < 2 2 e $ p < @ ; 4 e y e 6 # + # 6 4 # # t D.m.( . . O O # 1 v.|.XX6XhXfXsX9X9XwXhX",
"X.n p 2 & @ + + + , #   O 1 # O ; ; 5 9 5 ; # + O 1 6 ; @ Z D.S.D - 2 5 e e e ] [.XXXX0XxX0X3X9XwXrX",
"J q < # 1 @ @ @ + O % O @ 2 + @ # ; 1 5 1 @ # # @ L 5 ; @ ! D.S.u # 6 e e e 9 u !.[.|.0XfXiX|.tXwXrX",
"P 3 1 + # O X + + O O O 1 p # # O - @ 1 @ @ # # < h.e # @ ; S.1.O + 2 5 q 5 p p n.XXXX:XgXsX{.9XtXaX",
"#Xp # # O O . X O o O O 2 e 1 O O O ; ; O # & 1 n iXJ - # X 3 O . o # @ 2 5 6 n M.].XX|.gXpX2X1XtXeX",
"iX$X1 . O O O   . . o . 6 e 3 . X @ 6 @ X ; # 1 6 uX[ 1 ; O   # $ . + # # # # L v.n.Y.].0XaXXX|.|.eX",
"zXfXL.# X X O O .   . 1 7 e # .   p 2 9 ; L @ 3 6 :X@.- @ 1 6 P + o . . + + O ' v.M.].~.5XeX1X9X3XeX",
"zXzXzX+.# O + / + . + 1 p 2 $ O # p # ;XfX0X, , 5 #XlXJ , 2 J e $ $ o o i L o 2 4 3 S } k.iX{.0.i.5X",
"iXzXzXB.6 - u A.1 @ n +.L 6 # p e q # +.lXiXK d A -XiX' e L l.# 6 < < - A.pX[ +.A.L.;X:X0XzX#Xn n v.",
"xXgXzXA.L # #Xu.6 J zXzXiXxXiXxX+.< O # #X7XB E R %XxXb u ' #Xh.k.1 # z lXzXfXxXiXlXxXiXxXiX:Xn C +.",
"iXxXzXlXzXiXA.N n A.zXzXzXiXzXlX%Xi.5 p J ;XJ./.;XzXL.u b u.xXkXuX1 # p A.zXzXiXlXgXfXxXiXxXlXpXpXiX",
"zXzXlXzXlXzXjXiXzXzXzXzXlXzXzXfXzXzX:X#X;XjXzXzXgXlX@.n y O.kXzXzX>XL.H.;XzXzXzXzXjXzXzXlXfXzXzXgXzX",
"zXzXgXzXiXzXzXiXzXiXgXzXzXzXiXzXzXiXzXzXzXzXzXzXzXsXj.] | h.kXzXlXzXzXfXzXzXiXzXiXzXgXiXzXzXkXzXfXzX"
};
