/* XPM */
static char *etienne_pro1[] = {
/* columns rows colors chars-per-pixel */
"50 67 255 2 ",
"   c #181A1B",
".  c #090E19",
"X  c #26211E",
"o  c #1A1D23",
"O  c #171C26",
"+  c #121A2B",
"@  c #1E2224",
"#  c #1E2429",
"$  c #1E2635",
"%  c #232424",
"&  c #23262A",
"*  c #242B2D",
"=  c #2C2C2B",
"-  c #2B2725",
";  c #322E2C",
":  c #372C27",
">  c #37312D",
",  c #262D31",
"<  c #2B2E33",
"1  c #272B38",
"2  c #2C323A",
"3  c #2B3134",
"4  c #343333",
"5  c #393533",
"6  c #3D3B35",
"7  c #33353A",
"8  c #3C3B3B",
"9  c #35383D",
"0  c #2F3030",
"q  c #211F1C",
"w  c #46362C",
"e  c #463A36",
"r  c #553C32",
"t  c #592E26",
"y  c #6C392A",
"u  c #3F403F",
"i  c #47423C",
"p  c #564539",
"a  c #674738",
"s  c #774A37",
"d  c #66533E",
"f  c #744D32",
"g  c #192953",
"h  c #2B3647",
"j  c #343A43",
"k  c #383C45",
"l  c #2E3A55",
"z  c #022B73",
"x  c #0D3173",
"c  c #203F7C",
"v  c #413C45",
"b  c #3D4248",
"n  c #384457",
"m  c #384B66",
"M  c #325277",
"N  c #194377",
"B  c #444343",
"V  c #4A4945",
"C  c #47494B",
"Z  c #564B45",
"A  c #5A554A",
"S  c #4A4E53",
"D  c #464B55",
"F  c #4C535C",
"G  c #4D5156",
"H  c #535354",
"J  c #52555A",
"K  c #5C5A58",
"L  c #695946",
"P  c #775945",
"I  c #635C54",
"U  c #634C45",
"Y  c #7A654C",
"T  c #69645B",
"R  c #756857",
"E  c #6E614E",
"W  c #4D5564",
"Q  c #565C67",
"!  c #4E5972",
"~  c #5B6169",
"^  c #576578",
"/  c #646463",
"(  c #686869",
")  c #736D66",
"_  c #787468",
"`  c #666B78",
"'  c #6B727D",
"]  c #787674",
"[  c #756B76",
"{  c #6C4B67",
"}  c #895838",
"|  c #955A3C",
" . c #894A3A",
".. c #9B643E",
"X. c #A36C3F",
"o. c #895943",
"O. c #965D44",
"+. c #8E4A4A",
"@. c #A65D4A",
"#. c #9A6445",
"$. c #846D54",
"%. c #8C755B",
"&. c #867359",
"*. c #917A5D",
"=. c #94684E",
"-. c #A76A47",
";. c #B36D4C",
":. c #AB7149",
">. c #B4734B",
",. c #B9774C",
"<. c #B57552",
"1. c #BB7953",
"2. c #B06E53",
"3. c #8A7966",
"4. c #937D63",
"5. c #937C6A",
"6. c #837C74",
"7. c #957C75",
"8. c #A1746E",
"9. c #C47B55",
"0. c #D27B58",
"q. c #CA7E60",
"w. c #9A8266",
"e. c #9C8569",
"r. c #978368",
"t. c #89847A",
"y. c #978A78",
"u. c #928A72",
"i. c #A38B6C",
"p. c #A2886B",
"a. c #A58E72",
"s. c #A88F73",
"d. c #AC9273",
"f. c #AA9578",
"g. c #B49C7B",
"h. c #B99E7A",
"j. c #B39976",
"k. c #A8906E",
"l. c #BCA27D",
"z. c #B9A07C",
"x. c #B58355",
"c. c #CA855B",
"v. c #D4875C",
"b. c #CF8D56",
"n. c #D99665",
"m. c #CD8A62",
"M. c #E39768",
"N. c #C0A57F",
"B. c #DEA472",
"V. c #ECA475",
"C. c #012D98",
"Z. c #0C378B",
"A. c #0035BC",
"S. c #0F33BA",
"D. c #33518D",
"F. c #3B6793",
"G. c #204FA5",
"H. c #4C528F",
"J. c #566A87",
"K. c #4D6893",
"L. c #697485",
"P. c #767985",
"I. c #6B778E",
"U. c #4B75AB",
"Y. c #6869A3",
"T. c #0036DD",
"R. c #0038D8",
"E. c #0130C7",
"W. c #003AE4",
"Q. c #0C4ACE",
"!. c #306DCE",
"~. c #0456EA",
"^. c #034CEC",
"/. c #0A6EF8",
"(. c #2C70EE",
"). c #527BCF",
"_. c #5374EF",
"`. c #8B7A8E",
"'. c #708396",
"]. c #7688AE",
"[. c #1981FC",
"{. c #389EFE",
"}. c #3888FD",
"|. c #3CA4FF",
" X c #3AA8FF",
".X c #3D86D3",
"XX c #5182CD",
"oX c #5486D6",
"OX c #4A8CD4",
"+X c #7099D8",
"@X c #4F91F4",
"#X c #6995F5",
"$X c #45ACFF",
"%X c #4AB3FF",
"&X c #57AEFB",
"*X c #69A5FA",
"=X c #888687",
"-X c #968E84",
";X c #9A9486",
":X c #878B96",
">X c #969595",
",X c #A79B86",
"<X c #A89E92",
"1X c #ACA38B",
"2X c #BCA583",
"3X c #B7A688",
"4X c #BAAE95",
"5X c #B6AA96",
"6X c #BDB296",
"7X c #BDB19A",
"8X c #AFA994",
"9X c #949AA7",
"0X c #96A6B4",
"qX c #BAADA2",
"wX c #BDB3A5",
"eX c #ACACAC",
"rX c #A09FA7",
"tX c #C3AA84",
"yX c #C4AD8B",
"uX c #C5AA85",
"iX c #CBB38D",
"pX c #C9B18B",
"aX c #D0B78E",
"sX c #CCB593",
"dX c #C1B69A",
"fX c #C5BA9D",
"gX c #C9B898",
"hX c #D4BB93",
"jX c #D3BC9A",
"kX c #D5B992",
"lX c #C2AE95",
"zX c #C4BAA4",
"xX c #CABDA3",
"cX c #C4B6A6",
"vX c #D1BEAC",
"bX c #E0B48A",
"nX c #DBC49B",
"mX c #D9C398",
"MX c #CDC1A3",
"NX c #D6C6A6",
"BX c #DBD3AF",
"VX c #DDD6B3",
"CX c #CFC6B5",
"ZX c #E2DAB8",
"AX c #E3CDA5",
"SX c #E7CCA6",
"DX c #90A9C9",
"FX c #A6B3C8",
"GX c #91BDEE",
"HX c #ABCCE5",
"JX c #D8CFC4",
"KX c #D5EBF5",
"LX c #FBFCFC",
"PX c #EEEDE9",
"IX c #DCDEDA",
/* pixels */
"cXvXJXPXPXIXCXlX<X<X=X`.6.) G v b j j 2 3 , 9 V H ~ ~ ~ ( / G V u b F F F F F W / 6.u.t.] ( ( ( ( ( ",
"cXcXcXcXvXJXPXPXPXJXlX<X;X=X/ S b b 9 2 2 C / J b S G Q S , 9 V H G S F S F / t.t.6.' ( ( ( J n b F ",
"cXcXcXzXzX7XcXcXvXIXPXPXJXdX=X( J / _ C / ^ ` ^ ~ J b b 9 u H K S C S H / u.t._ ( / / F n h j b M ^ ",
"vXvXxXxXzXqXcXcXcXcXcXvXJXPXPXJX<X;Xt.` ' ' ` ^ ~ j 3 F G S b G S H _ _ _ ( ~ / / K b b b m U.OX%X'.",
"a.dXvXvXvXlXcXcXcXcXqX7XcXqXcXJXPXPX8X] L.' ` / b F ^ ^ ~ / S b ) 6._ ( / K G b S 2 n F.OX%X%X%X%X'.",
"2 j C ) -X5XlXxXcXcXcXcX7X5X;X=X=X>X'.( ` / S W ! '.J.' ~ T 6.6.) / / J b 3 2 h F.OX X X%X X%X%X X'.",
"1 < 2 7 H ( H [ -XqXcXcXqX5X>X[ ' L.' ~ H F ^ J.^ ^ ^ _ u.1Xt._ T H h , , l .X X X X X X%X%X&X&X%X'.",
", , < H C 2 2 2 j k H ] <X5X>XL.` ( K D ~ J.K.J.^ ] '.t.8X1Xt.t.9 , 2 m F..X{. X X X X X%X%X$X X X'.",
"3 3 T b 1 3 3 2 2 j C Q Q Q / W J G W W J.^ ` 6.-X'.L.` 1X5X-X6.9 b F.F.F.(.{.|.{.|.|.|. X X X X%X'.",
"u T 9 , , 1 1 1 j S ^ Q ^ ! G F F F F F ( =X>XI.L.( S h 1X8X;Xt.9 n F.K.U.OX{.{.|.|.|.|.{.@XU.F.n _ ",
"R H S V b 8 4 b W Q ^ W S D W ^ W J ( ] '.I.P.( D n L.FXqX8X>X=Xj n K.U.U.oX$X|. X@XOXF.W G _ ;XfX8X",
"( _ ) ( I H G ! Q W S V W ^ J.! ~ _ =X' ( W n ^ 0XKXLXLXCX7XqX;Xv F '.].].#XOXU.M F ) y.8X4X6XdXfX6X",
"F F J K Q / Q D n j k W ! ! [ =X[ ] =X~ m 9XIXLXLXLXLXKXwX<Xt._ I / =X=X[ D i 9 n 6X4X4X6X6X6XdX6X8X",
"] t.` J F D C Z J D D F ( P.` Q ) =X:X~ FXLXLXLXKXKXKXGXrXy.6.) v Z A I T Q U.oX@X4X4X6X4X6X6XdX6X8X",
"3 b H K D B k k k G ] [ ! F C W '.t.>X` FXKXHXHX'.P.' ] / K C e 8 v A I K 9X#X*X$X4X6X6X6X6XdXdXfX8X",
"7 3 7 k j D B 2 1 H ` J k J.DXGX9X>XrX] '.J.( C Z H C U Z Z H H 8 5 B B I P.#X*X&X6XlX6X6XlXdXfXfX6X",
"k 9 j 2 & # $ h h S ' W 0XKXGXGX0XrX`.P e k v 8 8 v e S V i e 8 4 < k k V K ].+X&XdXdX6X6XfXfXfXfX6X",
"S C k j 1 h m M ! I `.Q 0XKXGXGX9Xu.Z 8 7 9 v 5 v 7 9 e 8 8 4 5 4 ; = = 5 V J L.+XdXdXfXMX6XfXfXfX6X",
"P.^ ^ Q h W ! K.K./ 9X[ ].HXFXrX5.L r e 5 B e v V 8 8 8 5 8 < < ; 7 = = < 8 5 B '.gXMX6XfXfX6XMXfX6X",
"qXrX>X'.G ^ I.).'.) rXt.' t.CXwXR Z e 7 5 i 5 6 A e e 4 e * = = > < & & ; < * 0 A 1X6XfXfXMXMXMXfX6X",
">X:X:X:X( ~ [ L.:X[ 4X5X9X6.`.6.U e ; < e i 5 e i e 5 8 4 = = 4 ; = & ; = * & * i _ 4XgXMXMXMXMXMX6X",
">X>X:X:X] ' ].+X].I 5X5XrXR v r : = ; e r 5 e r p 6 5 5 ; 8 4 4 7 = = 5 0 = & = > A 1XfXMXMXMXMXMX6X",
"cXcXvXCX5X-XeXFXDX{ 5X5X6.U v w w > 5 r r r s r p > 5 4 8 6 8 > 5 4 & 4 4 = - 4 ; Z 5.dXMXMXMXNXMX6X",
"-X7.>XwX5X>XFXFXDXI <X5X`.v r w e r y s o.O.O.U p 6 > ; ; > 5 = 0 ; = = 5 = = = ; i I lXMXMXCXNXMXfX",
"v k D ` ( Q J.J.D.C ] 6.`.R v v P +.+.o.#.-.#.P p : ; ; ; = = ; ; ; ; = 4 = = = ; 5 i 4XNXNXNXNXMXfX",
"#X#X@X#X#XoXoX@XoXoXoX).oX).Y.P.U a o.2.2.=.#.o.s r w : : ; : = 4 = < = = = 0 - = ; e ] '.=X=X8XBXfX",
"XXXXXXXXOXoXOXOXXXXXXXoX#X#X#XL.Z U Z P -.2.<.1.1.=.r > ; > > ; ; 4 = = = - = = & = 5 J.M l h ' MXzX",
"z z z z z z x N Z.Z.x Z.#X#X#X`.O.+.=.=.=.<.c.c.9.1.o.r : : ; ; - - = - = * 0 - - * C J.N h h _ BXzX",
"Z.C.C.C.C.C.G.A.G.!.A.Z.Z.Z.z [ -.s e o.-.2.x.c.m.9.o.p r > : : o.;.r - - & * - - = C ( F n l _ MXzX",
"A.A.A.A.A.A.E.).).).!.!.N N m q.2.2.P %.2.m.c.c.m.9.o.p w w w s  .9.0.r @ - - = % 6 4 V 6 b h _ BXwX",
"E.R.^.T.R.T.R.~._.#X@X_.Z.N 5.9.c.m.x.m.m.n.m.c.m.9.o.p r r a O.;.0.0. .q - - & - V = V 9 W n ] MX8X",
"^.^.~./.~.^.^.W.^.~.^.W.Z.Y.q.9.9.n.B.n.n.m.m.b.v.9.-.s a :.| a a 2.v.o.% o & - = V 0 u 4 j 2 ) dX8X",
"[./././.}./.W.W.W.W.W.T.H.q.@.;.9.M.n.n.v.v.c.b.c.9.1.:.:.,.d d Z Z 0.@.= o q = > 8 4 9 > k k T ,X;X",
"{.[.[.@X@X(.T.W.T.T.T.T.Y.@.0.@.@.n.m.c.c.0.c.9.9.1.<.:.,.X.i d 5 e 0.O.X q q ; K I V > 4 4 B ) u.u.",
"@X@X@X@X}.^.W.W.T.T.W.T.S.{ +. .| v.m.c.c.9.0.9.9.,.>.<.<.x.X.X.O.;.0.s q     6 p y.1Xf.u.-X,X,Xu.<X",
"GX#X@X/.~.R.W./.^.W.^.W.E.E.H.@.9.v.c.9.,.<.;.,.,.,.<.1.1.v.b.b.0.9.O.w   q q U w 6.s.,X,Xu.gXxXfX<X",
"_._./.W.T.T.~././.~.(.T.A.A.H.9.v.b.c.9.>.>.;.,.9.,.9.,.x.X.b.b.X.X.} : q q % p E L R _ r.4XNXCXCXy.",
"(.W.T.T.~.~.(._._.(.E.C.C.Z.{ ;.9.0.9.,.>.>.,.,.;.,.,.1.,.X.,.,.,.x...: X X - : w e R f.xXxXgXjXjXE ",
"E.E.E.E.E.Q.G.H.G.C.z x g g 1 O.| 9.,.;.;.;.;.>.>.,.,.,.x.b.,.b.c.:.X.f r w p E f.zXNXgX3X3XyX3X3XZ ",
"C.Z.Z.D.D.Z.c g g + O o o o @ ..;.:.-.-.-.-.:.:.>.:.>.,.,.,.X.x.x.X.X.} f e.mXmXjXsX2Xf.f.f.g.f.,X5.",
"g g g g 1 + O O o o +     @ q 6 X.X.-...-.-.-.-.X.X.X.X.X.X.X.X.>.X.x.N.mXmXpXpXz.k.i.a.s.a.a.d.yXjX",
"$ O O 4 4 O O O # + . . .     - <.-.-.............X.X.} } ..X.X.x.N.mXmXmX6Xz.i.r.r.r.r.3.f.lXNXNXNX",
"O O & & O + O O #   . . @ A u.8X9.<.-.X.| ..| | f f f f f } x.pXmXmXmXN.z.i.&.r.R r.r.f.jXjXjXgXsXyX",
"o O & O o O & O 3 A u.f.6Xu.BXBXuXO.O.| }  .f a f r y f X.B.mXmXaXz.z.w.&.r.k.l.pXiXyX6X3XyXuX2Xg.f.",
"o o o O & I T T u.1Xu.A _ 8XmXBXBX6Xg.k.k.f.f.y.Y f f h.mXmXtXj.k.r.r.z.pXN.6Xl.l.z.g.j.j.f.s.s.s.s.",
"o o o O 4 T $.) R _ A u.u._ 6 6 f.BXBXBXmX,Xy.8X$.X.iXmXaXl.k.&.Y k.j.k.w.k.f.g.f.k.a.e.e.e.e.p.p.a.",
"= = = 5 Z T ) ) T K u 3 3 * % * 6 T 3X_ 6 - K r.k.mXhXtXk.*.L w.k.w.Y Y e.z.j.k.r.r.*.&.&.$.&.3.3.5.",
"i 8 8 V K T K e * @ * @ @ * * * u 6 6 i i _ u.i.mXaXz.w.f Y w.w.L L r.i.i.j.z.l.iXiXz.f.a.3.R P p : ",
"8 8 V u 4 # @ @ o o @ # @ % * i 3.fXZXu.u.iXg.MXl.k.w.p Y w.Y d $.r.*.k.z.AXAXnXjXyXf.p.w.4.e.8.p.8.",
"8 4 * @   @ o o   @ q % * A f.BXZXZXVXMXz.MXmXl.k.r.Y P $.Y d $.&.a.mXAXhXnXAXSXjXyXg.s.w.4.%.%.3.4.",
"@ % q o @ @ @ @ @ * 6 _ 6XBXfX6XBXMXl.mXz.MXz.k.w.r.} Y d E Y d r.mXnXnXmXaXnXkXkXkXjXnXjX2Xs.=.$.*.",
"q o % @ q @ % = A u.BXVXmXl.6X6XmXl.l.k.r.g.k.r.Y Y Y E L d d k.mXmXmXhXnXaXnXhXjXkXsXsXjXyX,X3Xa.$.",
"o q % % - 6 _ 6XBXBXBXBXfXk.z.l.k.w.e.w.%.w.sXk.Y Y E d 6 &.aXmXhXmXaXmXnXhXiXpX2XuXuXuXsXkX2X8.p.f.",
"% * > A f.BXVXZXZXr.pXmXtXz.i.r.w.Y &.$.*.e.nXaXr.Y L p r.mXmXmXhXaXhXhXkXkXiXhXpXuXuXuXuXuXyX2Xe.4.",
"i t.6XVXZXZXZXZXBXw.j.l.j.i.r.$.w.&.d E r.f.nXiXu.u.&.k.mXaXmXaXaXkXhXhXsXaXaXpXjXkXaXiXuX2X2X2X3Xf.",
"BXVXVXVXVXZXZXmXn.b.b.i.w.Y Y &.i.*.Y p r.2XnXkXz.g.z.mXmXmXpXpXaXkXkXkXaXkXaXuXyXg.uXpX2Xj.d.d.d.g.",
"ZXSXSXnXbXkXB.M.b.b.X.$.Y Y P $.r.d Y L w.pXiXsXiX2XiXiXmXaXpXaXmXkXaXaXaXaXaXpXuXyXg.d.d.s.d.s.s.s.",
"SXV.V.B.B.B.n.b.,.X.P L d Y w.k.Y d L d k.z.jXgXgX6XmXmXl.N.aXmXmXaXmXaXN.pXpXN.h.yXuXg.p.s.d.d.f.s.",
"V.M.v.q.c.c.9.,...f d Y Y Y Y Y E E d i d.pXmXsXyXyXiXiXpXmXmXiXaXaXpXN.N.N.N.z.uXd.tXtXyXj.s.d.s.s.",
"M.0.-.O.-.-.-.#.f $.w.w.r.r.&.r.E = . A k.iXgXsX6XpXiXpXl.mXmXmXN.N.l.j.j.j.d.k.j.j.j.pXuXyXuXp.p.5.",
"9. .y y } O.| O.r.r.r.r.r.r.E 6 - @ @ r.p.uXjXsXyXpXyXpXmXpXN.l.N.N.j.k.k.k.k.j.h.h.d.d.w.w.d.2Xj.5.",
" .t y y O.#.o.%.r.r.r.r.R 6 @ @ # & * e.p.2XiXkXiXgXlXyXmXN.l.l.j.j.j.k.d.d.j.h.N.h.h.s.d.w.p.i.j.uX",
"y t t  .-.o.&.3.%.r.R 6 @ @ @ * & , < 3.p.2XpXjXjXgXpXyXN.N.N.h.N.j.j.j.h.h.h.N.h.h.g.d.d.d.i.p.p.p.",
" .y  .O.o.&.3.*.E = * @ @ @ * * 3 , * V a.3XjXjXjXgXpXyXl.N.N.N.N.N.h.N.N.N.N.N.tXh.h.h.i.d.p.p.p.p.",
"+. . .P 3.3.U =   o @ # * * , , , , 3 ( u.mXmXnXjXjXsXyXuX2X2XtXuXtXtXN.N.N.N.N.pXN.l.z.j.i.i.w.w.w.",
" .s $.%.Z o     .   # * * , , * , 9 ( l.g.nXNXNXNXjXkXsXyXtX2XtXuXuXtXpXN.N.N.aXN.N.l.l.l.k.w.r.w.i.",
"$.&.C @       .     o & * * , , n _ mXz.6XmXnXNXNXjXkXkXiXpXuXtXtXtXtX2XpXN.N.N.l.z.l.l.h.h.w.%.w.w."
};
