/* XPM */
static char *etienne_pro2[] = {
/* columns rows colors chars-per-pixel */
"50 67 252 2 ",
"   c #080909",
".  c #0D0E11",
"X  c #1B1817",
"o  c #16100C",
"O  c #231C14",
"+  c #271B17",
"@  c #28100D",
"#  c #2A231B",
"$  c #33251B",
"%  c #3C2B1D",
"&  c #382618",
"*  c #36220C",
"=  c #1A1C25",
"-  c #1D212D",
";  c #242322",
":  c #2D2624",
">  c #29282A",
",  c #342B24",
"<  c #3B2E25",
"1  c #332D2A",
"2  c #3A2E29",
"3  c #322623",
"4  c #3E3126",
"5  c #3C322B",
"6  c #38332A",
"7  c #282A33",
"8  c #383738",
"9  c #29353A",
"0  c #4A100A",
"q  c #700614",
"w  c #452C1A",
"e  c #49321E",
"r  c #5A371C",
"t  c #512D06",
"y  c #683C17",
"u  c #42352B",
"i  c #493B2D",
"p  c #463627",
"a  c #563925",
"s  c #443C33",
"d  c #4A3C33",
"f  c #453D39",
"g  c #4B3327",
"h  c #653E25",
"j  c #754718",
"k  c #4C453A",
"l  c #4A4236",
"z  c #54483A",
"x  c #594228",
"c  c #67462A",
"v  c #764928",
"b  c #654C36",
"n  c #6C5336",
"m  c #75593A",
"M  c #784C34",
"N  c #7D603D",
"B  c #3A3D44",
"V  c #2B324B",
"C  c #303C60",
"Z  c #443E44",
"A  c #394459",
"S  c #3F4147",
"D  c #3B4A67",
"F  c #385075",
"G  c #454446",
"H  c #554D42",
"J  c #584E47",
"K  c #5C544C",
"L  c #595245",
"P  c #454B57",
"I  c #54535B",
"U  c #675749",
"Y  c #655C54",
"T  c #6F5947",
"R  c #7C6244",
"E  c #6B6357",
"W  c #756758",
"Q  c #6F6047",
"!  c #495469",
"~  c #565A69",
"^  c #495572",
"/  c #5A6375",
"(  c #66656B",
")  c #7C7565",
"_  c #726F75",
"`  c #951122",
"'  c #875426",
"]  c #945C2A",
"[  c #855636",
"{  c #985D37",
"}  c #8F482E",
"|  c #B15935",
" . c #9C632D",
".. c #986336",
"X. c #82643F",
"o. c #A76836",
"O. c #B66C3B",
"+. c #B7753C",
"@. c #A76B35",
"#. c #84511B",
"$. c #C4703B",
"%. c #8F5C46",
"&. c #8D6F49",
"*. c #866A46",
"=. c #8E714B",
"-. c #93754D",
";. c #9C784A",
":. c #826A57",
">. c #847359",
",. c #9B7C53",
"<. c #967853",
"1. c #9D6749",
"2. c #B66C44",
"3. c #BB7644",
"4. c #A8764D",
"5. c #847666",
"6. c #917D6C",
"7. c #AC5645",
"8. c #C77A46",
"9. c #D57A47",
"0. c #CC704C",
"q. c #EA7945",
"w. c #C6833F",
"e. c #9E8257",
"r. c #A38256",
"t. c #A5845A",
"y. c #AB8B5D",
"u. c #A9875B",
"i. c #B18E5D",
"p. c #BE8A56",
"a. c #B5915E",
"s. c #BA8348",
"d. c #9C8C76",
"f. c #9A886F",
"g. c #AD8D61",
"h. c #A98B68",
"j. c #B18F62",
"k. c #B28867",
"l. c #B49264",
"z. c #B99565",
"x. c #BD9966",
"c. c #B49469",
"v. c #BB9669",
"b. c #BD9A6B",
"n. c #B4986C",
"m. c #A69377",
"M. c #BC9C72",
"N. c #B29C7B",
"B. c #A9906C",
"V. c #BBA37D",
"C. c #C98348",
"Z. c #D6884C",
"A. c #D78A55",
"S. c #DB9659",
"D. c #D7914E",
"F. c #E48A4C",
"G. c #E69756",
"H. c #E99051",
"J. c #C29D6B",
"K. c #C29B68",
"L. c #C09C72",
"P. c #D89363",
"I. c #C5A16E",
"U. c #C9A46F",
"Y. c #C4A373",
"T. c #CAA672",
"R. c #CEA974",
"E. c #CCAB7B",
"W. c #C5A67C",
"Q. c #D2AD76",
"!. c #D2AD79",
"~. c #D5B17B",
"^. c #D9B47B",
"/. c #D8B479",
"(. c #E3A866",
"). c #3A598B",
"_. c #3D649B",
"`. c #465D86",
"'. c #586988",
"]. c #5A7498",
"[. c #4D6794",
"{. c #777984",
"}. c #687798",
"|. c #6A748A",
" X c #5275AC",
".X c #667BA5",
"XX c #4F7EC9",
"oX c #807C88",
"OX c #79859A",
"+X c #7D828C",
"@X c #7484A8",
"#X c #6885B7",
"$X c #778BB7",
"%X c #728FB3",
"&X c #6B8BC4",
"*X c #7894C5",
"=X c #7394D1",
"-X c #74A5D2",
";X c #529CFD",
":X c #579AF6",
">X c #5193ED",
",X c #6199EE",
"<X c #5AA4FD",
"1X c #58A4FE",
"2X c #65ABFC",
"3X c #6BB7FE",
"4X c #75ADF1",
"5X c #5187CE",
"6X c #7AC6FE",
"7X c #77C6FF",
"8X c #6DC0FE",
"9X c #8A8A93",
"0X c #A89985",
"qX c #A99E93",
"wX c #BAA684",
"eX c #B3A899",
"rX c #8E95AC",
"tX c #9DA5AF",
"yX c #A6A7A4",
"uX c #B1ADAE",
"iX c #AF9FA7",
"pX c #C3AC84",
"aX c #C7AC87",
"sX c #CAB289",
"dX c #D9B784",
"fX c #CDB596",
"gX c #E1BE8B",
"hX c #C7BAA8",
"jX c #DBC18E",
"kX c #E8C695",
"lX c #F1CD9B",
"zX c #EACA95",
"xX c #D9C9AF",
"cX c #E4D0A8",
"vX c #EDD5A7",
"bX c #F7E1AC",
"nX c #849BC9",
"mX c #95ACDB",
"MX c #99B3DE",
"NX c #93A7D0",
"BX c #A7B1CD",
"VX c #95B4E3",
"CX c #85B1F6",
"ZX c #A3BDE2",
"AX c #86CCFD",
"SX c #96D5FE",
"DX c #ADD5F4",
"FX c #B0D3EE",
"GX c #E3DACB",
"HX c #D5E6F2",
"JX c #E8E9E6",
"KX c #CCD4DA",
/* pixels */
"K J J I G J J J J K K E E Y K K K E d.m.m.d.W S S S B B S G S S B B k ) 8 s 8 9 6 7 1 > > 7 > = # d.",
"J H G k S V B k G G 8 > 7 7 9 8 8 K m.m.m.d.E S 8 S S S I / / |.+X{.{.{.+X9X9XOX@X@XrX*X$X*X}.; ; 0X",
"= = = = = = = V > - 7 7 9 B A D F K d.m.d.d.E 9 P 7XSXSXSXSXDXDXDXFXBXBXuXBXNX-X*X&X&X&X&X&X[.; ; 0X",
"= = - 7 F )._._.5X5X>X4X2X3X3X8X3XY m.m.0Xm.E B A 8X7X7X6X7X7X6X7X8X-X*X-XnX$X%X=X&X&X&X#X&X`.X ; 0X",
"D F F ).>X>X;X;X1X<X<X2X<X2X2X3X3XE N.wXV.0XY 9 D 8X6XAXAXAXSXSXDXDXBXNXtXBXnXrX-X*X*X&X&X#X`.X 6 eX",
"C F ).).>X>X;X;X1X1X<X<X2X2X3X1X<XE 0XwXwXqXY B D 7X7X7X6XAXAXSXSXCXnX*X*X*X*X=X#X#X#X#X#X&X^ X 8 fX",
"F F )._.>X>X>X;X;X1X<X2X3X3X2X3X2XE wXwXpX0XW B ! 8X8X7X7X7X7X6X7X4X*X*X%X&X#X&X#X#X#X#X#X&XD ; z hX",
"^ ).`.[.>X>X>X>X;X1X1X1X1X1X1X1X<XE wXfXaXwX:.H / 8X7X7X6X6X6X6X6X4XnXnX$X$X%X#X#X#X X].#X#XD ; H eX",
"'.|.'.}.,X:X;X;X;X1X1X1X1X<X<X2X4XW aXsXN.B.6.:.( -X-X-X-X*X-X$X%X@X|._ ( ( I P S 9 6 > > ; ; ; K fX",
"( ( ~ ^ [._.`.).).F F F D A A A P :.m.6.<.:.R T R :.6.5.) ) 5.5.f.) ) ) ) W E G l 9 > 6 - ; ; # U fX",
"+ - - 7 - - - 7 G f.B.m.N.V.wXsXN.:.W T J J d f d H U 6.m.yXtXtXyXyXyXyXyXyX9X|.[./ '.OXOX].].> E xX",
"V Z Z I '..X X X#XV.V.pXwXsXwXB.W L d 5 u d u 1 8 u s z 6.uXKXHXHXKXJXJXJXJXKX%X%X#X%X%X%X@XOX6 Q xX",
"~ 5.oXoXnXCX,X:X4XV.pXpXsXwXf.U d d u 1 5 5 2 > ; > 1 f U T W m.hXcXGXGXGXKX%X@XOX_.OXtX@X@X'.6 5.xX",
"( oX|.oX=X2X<X<X4XpXwXpXsX>.U 1 : : 1 2 5 2 6 2 : : 3 1 s b T z L L ) eXyXrXOX@XF OXtXrX@X@X/ , f.xX",
"I ~ |.oXnX4X:X;X4XV.aXV.W U 1 1 2 6 5 5 2 u u u u u 2 1 5 i z l s s l n +XOXOXOXOXOX%X%X#X#X~ 9 d.xX",
"oXoX'.[.=XCX2X;X4XW.V.T d 2 2 2 u 5 2 2 5 d 5 2 2 u 2 : 2 6 6 5 6 , , 6 n _ +X|._.OXOXOX@X@X~ 6 d.cX",
"~ ^ |.|.&X,X:X:X4XaX6.Z g u 2 2 5 s < u i l x , , 4 < : , : : 1 2 2 u 3 g b T _ |.OXOX@X}.%X/ 5 qXcX",
"~ C F `.XX,X,X,X2XaX:.g d d u u u u 4 i z l l u p u 3 4 p 6 $ , 2 2 w u u g J ( _ 9XOX}..X].P 5 eXcX",
"~ F ^ `.XX,X,X=XnXwXU u d u g d u 2 u i i l p 4 p p u w 4 , , < p & g w $ $ g T 5.+XOX@X.X].P 8 eXcX",
"Z Z C C `.[.`.'.|.aXJ < d u 2 u 2 < u p i p 4 i p p p < $ % g w g a w a w $ w U E ) Y / ~ ! k 5 hXcX",
"- + = 3 u : 1 2 z aXz < d 3 2 w < 4 4 4 % 4 4 4 g p w < < e a h h v h h a w < z b T U U L k s 8 hXvX",
"I C C ~ '.}.}.rX9XsXi u d 3 2 2 , , < 4 & $ $ $ $ & $ w e h c [ } [ [ [ } a & g :.hXuXuX9X_ k k hXcX",
"I P F |.oX&XrXGXfXfXd u u 3 2 3 # # $ $ $ O X O # & % w w h M o.o.2.2.2.%.1.g J 6.uXFXKXFX{.Y Y xXcX",
"I I `.oXoX.XoXBXiXfXU u 2 3 3 + # # # O $ # O $ $ w w e h } o.8.8.C.8.2.7.4.:.W 9XBXmXFXVX( E Y xXzX",
"P D D {.+X].@XtXrXgXW 2 3 3 + = # # O O + & % & w e r v v o.0.Z.Z.C.8.1.h d Y rXNXZXMXZXmXI E U f.W ",
"( Z 2 d L L H H K E z 1 3 3 X + O # O e w & & e a x v { 8.Z.Z.Z.A.8.1.M n g _ ZXVXVXMXMXMXG K 5 # X ",
"_ Z 3 f K L H L H H z : 3 3 X X o w @.$.| y y h r c m +.D.D.Z.Z.8.2.1.M r } rXMXVXVXmXmXmX8 ; @ + + ",
"Z P } f K H H z H z H 1 3 + X X @ y H.$.} } } h w c m 3.F.G.H.D.3.1.m c } 2.iXVXmXmXmXmXNX- : o o r ",
"d & 7.5 Y H k k k k l s 6 X X X + | q.$.| | y h t c { O.G.G.G.G.A.8.4.%.2.2.P.mXmXmXmXmX/ - : h ' c ",
"d d [ 5 Y H l l 8 6 6 6 u X X + & 2.q.$.r @ y o.j r ] O.H.(.G.G.S.G.P.4.0.9.0.1.B B V C V = 7 d o.e ",
"u c.aX< Y H l l 5 1 $ , u + + @ w C.F.} @ 3 & +.O.j o.8.H.G.G.G.(.G.S.9.A.9.0.9.d = + V C V V 7 d >.",
"h aXaX< U H l s 6 $ # , 4 3 X X w 8.H.0.@ + O } O.+.8.9.F.H.G.G.G.P.P.P.9.0.0.9.P.eXqX'.V - > 7 1 m.",
"t r.V., L z l s 6 > z Q ) Q O O * 1.F.9.] % @ #.+.C.Z.Z.D.H.H.G.G.A.P.A.0.| 0.0.0.fXiXZ = - > = : J ",
"* n V., L z l s , e.jXB.X.e.& O o r 2.9.F.9.$.O.$.8.Z.D.D.F.F.F.Z.A.P.0.2.} 7.| } wX~ - = . = - > T ",
"0 * # # L z l 6 f.jXe.N e.E.4 O * & { C.9.F.C.o.C.D.D.F.F.F.9.9.0.8.0.A.0.0.%.` ` q V . .   . = 2 T ",
"0 @   # L z l >.jXV.e.* jXjXN % e g 4.S.8.$.O.o.8.D.G.H.H.F.8.8.+.8.C.C.9.0.%.q ` @ = . . .   . 3 h ",
"0 @   @ z k l E.gXzXT.x gX^.;.n ..p.P.S.C.C.s.C.A.(.H.S.F.Z.$.8.O.+.8.8.0.7.M 0 ` ` @       .   : U ",
"* @   X z l s V./.jXV.e././.;.w.o.A.(.S.D.C.C.S.A.S.A.Z.Z.8.+.O.2.$.8.8.%.7.6.d ` q 0 b ) X .   > ~ ",
"q q   @ z l s n.dX/.^.b.I./.a.w.D.S.(.S.C.+.C.A.S.A.A.Z.w.$.+.+.$.O.O.3.0.2.L.L.V.} i.bXbXm.  X f d.",
"q 0 0 + k s z E.jXQ.jX/.X./.Q.w.G.S.(.S.D.+.+.3.s.C.8.3.+.O.O.@.O.O.O.7.2.4.L.k.M.E.jXvXvXvXn.pX:.f ",
". 9 >.>.pXdXkXE.jXjX/./.i.n./.p.D.G.G.G.D.+. . . .@.@.@.@.@.@.@.o.o.O.o.2.g.c.c.j.W.W.pXdXjXjXe., : ",
"b ) jXlXkXdXE.l.jXjX^./.U.r.Q.U.w.D.G.D.w.+. .] ] ] m j  . . . . .o.@.O.3.t.h.h.t.M.pXE.V.n.e.# ; ; ",
"cXjX^.b.x.g.*.y./././.jX/.x.y.U.p.w.D.D.w.+. .#.] j j j y j j ] ]  . .o.1.j.h.g.e.M.W.T.Y.E.>.# O X ",
"T.I.I.T.R./.U.n.Q./.pX/././.b.x.x.s.D.D.w.+.@.@.w.@.#.t t e x r v v v ..r.B.u.t.,.b.M.L.M.R.>.X X o ",
"jX^.R.U.I./.^.U.a.R.I.n.Y.R.R.U.I.a.s.w.w.@.@.+.w.s.] j y n x * n c &.u.c.h.g.e.u.M.b.b.Y.W.M.6 X X ",
"/.!.U.I.x.R./.~.I.y.I.y.e.b.R.Q.R.U.a.+.+.@. .@.+.+.] j m N N n &.r.b.n.h.u.g.,.y.M.b.n.Y.Y.c.pXQ o ",
"/.E.I.x.x.I.Q.~.R.x.y.y.e.e.y.I.U.U.R.U.s. .@. .@. .j e.N e.N e.y.x.l.,.g.t.u.e.j.b.c.n.M.M.g.b.aXo ",
"~.~.U.l.a.x.R.Q./.R.x.e.i.e.e.r.a.I.I.a.i.;.#. .j j y.y.e.*.y./.x.g.&.e.g.u.g.t.l.l.u.c.M.t.=.V.wXQ ",
"!.Q.T.l.a.a.I.U.Q.Q.U.x.u.x.y.r.n.l.l.y.M.i.;.a.b.V.b.b.U.Q./.x.e.N <.g.g.u.l.g.j.g.g.v.b.T t.M.L.fX",
"R.!.T.x.r.y.I.I.Q.U.U.U.x.i.b.i.i.Q.n.l.l.~.r.a.V.x./.gXgXR.a.N m =.g.g.g.g.l.g.u.r.g.M.<.*.h.k.E.dX",
"T.!.R.I.u.r.a.I.U.U.U.U.b.x.a.x.b.b.I.M.n.T.n.r.U././.Q.a.e.n x =.g.l.l.l.l.l.y.,.g.v.c.R <.g.t.L.h.",
"I.R.Q.Y.a.r.r.x.U.Q.Q.Q.R.T.x.x.R.Q.Q.I.M.b.b.e.U.i.r.N V.N m N g.c.g.l.l.l.g.t.u.h.n.*.<.r.t.t.k.E.",
"v.T.Q.T.b.y.,.i.I.U.Q.R./.R.U.I.x./././.M.j.E.m c c m m /.e.e.e.c.j.j.l.l.y.y.u.g.z.<.&.,.j.u.g.k.I.",
"z.I.R.T.I.z.r.,.x.U.I.U.b.R.R.U.I.R.Q.b.y.=.^.m n N e.r.Q.=.e.y.j.y.l.l.i.u.t.l.v.h.n g.r.l.v.u.z.T.",
"k.J.R.R.T.J.l.,.i.x.x.I.I.x.U.R.T.Q././.l.=.W.-.n &.e.y.E.;.-.i.i.j.l.y.g.k.z.J.J.b *.c.t.k.u.y.J.R.",
"t.z.I.R.T.J.b.y.r.a.a.a.x.x.x.x.I.T.T.T.r.N b.u.N =.;.r.V.e.e.i.y.g.l.y.z.I.!.W.*.i ,.k.t.z.&.z.J.J.",
"4.z.J.J.U.T.L.v.r.r.i.a.a.i.i.i.i.y.y.-.X.&.n.l.X.X.e.x.!.i.y.i.y.l.y.l.I.R.~.c.u R b.t.u.,.-.v.J.J.",
"u.k.J.L.U.J.J.J.a.r.i.a.a.y.y.y.r.u.<.-.&.-.i.Y.-.X.r.I.~.a.g.u.g.g.x.b.T.~.Y.x a ,.T.<.k.&.j.v.c.L.",
"r.g.K.J.U.J.L.K.x.x.i.a.x.n.n.r.y.,.-.&.&.,.y.Q.r.;.u.I.~.g.y.u.y.l.x.T.~.R.*.p *.Y.L.<.y.,.z.h.v.gX",
",.t.l.L.L.P.K.K.x.x.x.a.a.x.x.a.i.,.,.-.;.y.a.^.x.a.x.T./.e.r.u.y.x.I.R.E.t.i x k.dXv.<.<.v.v.t.gXkX",
"<.u.l.K.J.J.v.z.v.J.K.K.x.I.I.I.J.K.J.K.K.J.Q.^.I.a.U.I.!.t.e.e.y.I.R.R.b.x x e.R.~.,.,.<.v.L.k.lXkX",
",.y.i.l.J.v.z.v.z.v.K.K.x.I.x.U.R.~.~.^././.^.^.x.a.I.a.I.g.-.<.j.I.T.I.m p R I.dX!.<.*.g.k.v.sXlXlX",
",.u.y.k.J.J.z.z.j.l.n.x.x.I.I.I.U.R.Q./.Q.Q./.dXx.y.a.u.g.c.&.-.j.x.x.*.& b n.R.!.Y.=.n g.g.dXlXlXlX",
";.r.y.l.z.K.v.j.i.k.a.x.x.x.K.I.I.R.T./.Q.Q.Q.dXb.r.y.-.y.l.X.e.j.x.e.% a y.T.R.E.k.R n ,.v.gXlXvXlX",
"&.,.u.i.j.b.z.j.j.j.y.l.z.v.b.I.U.T.R.T.R.R.R.^.b.,.-.&.u.l.*.,.l.t.p e <.U.T.T.R.e.b n -.E.gXlXlXkX",
"X.,.r.u.i.z.v.l.i.y.y.g.u.j.z.J.I.I.T.U.T.I.J.J.v.*.&.&.g.c.=.u.y.x w R U.U.T.R.T.*.x R <.dXkXlXlXkX",
"X.&.;.r.u.z.v.z.y.r.y.r.t.t.u.y.l.v.b.K.J.K.i.,.M.*.*.&.g.j.=.u.b w n K.b.U.R.!.b.c b R ,.jXkXlXlXkX"
};
