/* XPM */
static char *exit[] = {
/* columns rows colors chars-per-pixel */
"50 50 249 2 ",
"   c #17151C",
".  c #392D1F",
"X  c #181425",
"o  c #1A1628",
"O  c #1D1B2C",
"+  c #1C1D32",
"@  c #231A26",
"#  c #241C2A",
"$  c #2C1E2A",
"%  c #301F2B",
"&  c #221E33",
"*  c #1B242D",
"=  c #1A2E3D",
"-  c #25242C",
";  c #34222C",
":  c #3B252E",
">  c #3A2929",
",  c #29342B",
"<  c #323A2B",
"1  c #232134",
"2  c #2A2836",
"3  c #24253C",
"4  c #362734",
"5  c #3C2B32",
"6  c #2C383B",
"7  c #38353B",
"8  c #761A26",
"9  c #462A2D",
"0  c #592C2B",
"q  c #46342B",
"w  c #55362B",
"e  c #482B32",
"r  c #502F33",
"t  c #483437",
"y  c #573737",
"u  c #5C3B35",
"i  c #6D3A2F",
"p  c #683B38",
"a  c #753934",
"s  c #354F38",
"d  c #435728",
"f  c #4C4831",
"g  c #57463A",
"h  c #4D573C",
"j  c #525B39",
"k  c #654639",
"l  c #7B4737",
"z  c #74423C",
"x  c #6C5933",
"c  c #7D5538",
"v  c #4C6F33",
"b  c #71743A",
"n  c #162C47",
"m  c #17344B",
"M  c #163551",
"N  c #272A42",
"B  c #2A2D44",
"V  c #2B2F48",
"C  c #3B2A4C",
"Z  c #2D324C",
"A  c #373447",
"S  c #33344B",
"D  c #3B394B",
"F  c #2C215E",
"G  c #2F3551",
"H  c #353A53",
"J  c #373A54",
"K  c #343C59",
"L  c #413C4A",
"P  c #6A3958",
"I  c #43196D",
"U  c #17514F",
"Y  c #215245",
"T  c #244559",
"R  c #3D435B",
"E  c #384458",
"W  c #35634C",
"Q  c #367943",
"!  c #184D79",
"~  c #3D4964",
"^  c #314E69",
"/  c #3E6D71",
"(  c #434146",
")  c #5B5144",
"_  c #4F4F51",
"`  c #41465D",
"'  c #464859",
"]  c #585A56",
"[  c #775543",
"{  c #6E4E50",
"}  c #416A45",
"|  c #576747",
" . c #49774D",
".. c #6B674D",
"X. c #677649",
"o. c #786859",
"O. c #727058",
"+. c #454C66",
"@. c #4A5169",
"#. c #555769",
"$. c #4B5775",
"%. c #545C73",
"&. c #535D78",
"*. c #6D5264",
"=. c #5C6A6B",
"-. c #57617A",
";. c #5B647D",
":. c #45707B",
">. c #776767",
",. c #706D6B",
"<. c #67796A",
"1. c #65687A",
"2. c #78797C",
"3. c #873B32",
"4. c #DC3B34",
"5. c #864436",
"6. c #895A3A",
"7. c #965030",
"8. c #AC5032",
"9. c #956939",
"0. c #B46839",
"q. c #AC7332",
"w. c #CD4D30",
"e. c #CA5735",
"r. c #CE6E32",
"t. c #F07E2A",
"y. c #854E44",
"u. c #855745",
"i. c #91564C",
"p. c #9A5751",
"a. c #AC5147",
"s. c #BB5A44",
"d. c #986957",
"f. c #927051",
"g. c #BA7545",
"h. c #B3714F",
"j. c #A36955",
"k. c #935171",
"l. c #8C7266",
"z. c #B9756B",
"x. c #C9744C",
"c. c #DB645A",
"v. c #38A93E",
"b. c #549B3C",
"n. c #6B832D",
"m. c #3D8244",
"M. c #568A46",
"N. c #4D904A",
"B. c #69874A",
"V. c #779151",
"C. c #6BA64B",
"Z. c #6EA852",
"A. c #578B6E",
"S. c #6E876F",
"D. c #71AF6B",
"F. c #8E9A3C",
"G. c #A19327",
"H. c #DC8B19",
"J. c #C2A811",
"K. c #D38B37",
"L. c #F08F2C",
"P. c #F2B036",
"I. c #F8C913",
"U. c #90954E",
"Y. c #AC8A50",
"T. c #A7A35A",
"R. c #958876",
"E. c #B88D6A",
"W. c #AA9070",
"Q. c #B79475",
"!. c #B0AD75",
"~. c #C38546",
"^. c #D28B55",
"/. c #D0A658",
"(. c #EBAC55",
"). c #CB9369",
"_. c #CC916E",
"`. c #D7976B",
"'. c #E79867",
"]. c #D5A665",
"[. c #C6A477",
"{. c #D7A678",
"}. c #E7B274",
"|. c #ABD454",
" X c #95CA63",
".X c #FED757",
"XX c #DFD765",
"oX c #F5CA6D",
"OX c #285C85",
"+X c #2D6D94",
"@X c #1276AF",
"#X c #2171A4",
"$X c #4F5C92",
"%X c #5B6784",
"&X c #53708D",
"*X c #636C88",
"=X c #67728C",
"-X c #797D86",
";X c #697793",
":X c #737C94",
">X c #6F19C3",
",X c #B94993",
"<X c #877291",
"1X c #811ED6",
"2X c #368694",
"3X c #1890B1",
"4X c #70848D",
"5X c #74819C",
"6X c #5B95AA",
"7X c #7987A2",
"8X c #6F93AA",
"9X c #21C696",
"0X c #1095CD",
"qX c #0DA7DA",
"wX c #5BB1E2",
"eX c #52CAD5",
"rX c #908B91",
"tX c #A69288",
"yX c #98B592",
"uX c #B2AF93",
"iX c #8593AC",
"pX c #8B96AF",
"aX c #89A5B1",
"sX c #A6ADB9",
"dX c #CC8792",
"fX c #EA9098",
"gX c #CAAB8C",
"hX c #DAAC85",
"jX c #C8B19A",
"kX c #DBB396",
"lX c #E1B38B",
"zX c #E4BA97",
"xX c #C9B6A6",
"cX c #B2CCAA",
"vX c #D1CA92",
"bX c #E9C88C",
"nX c #DBE78D",
"mX c #D7CCB4",
"MX c #D6CDBE",
"NX c #E6CAA6",
"BX c #EBD6B5",
"VX c #EDE9A1",
"CX c #93B0C8",
"ZX c #B4BDCC",
"AX c #A9D0E6",
"SX c #CDD9C2",
"DX c #D7D8D9",
"FX c #E6DAD1",
"GX c #DEE3E8",
/* pixels */
"k k | ) h h h h p p l l y L L @.:X*X*X=XiX5X  X X X X X X X X X X X X X X X X X X X X X X X X X X X ",
": 5 5 u g r % @ @ ; > @ @ O % L +.J C & + o X X X X X X X X X X X X X X X X X X X X X X X X X X X X ",
"; ; ; u p u $ X o o X X X X : L $.K B o X X X o X X X X X X X X X X X X X X X X X X X X X X X X X X ",
"$ $ $ y u y $ X X X X o X X % A +.K B X X X X o X X X X X X X X X X X X X X X X X X X X X X X X X X ",
": : : : : : $ $ $ # # S N N 3 V G G S 9 : 5 7 t ; X X X X X X X X X X X X X X X X X X X X X X X X X ",
"r r r 9 : : 9 e r e t :X&.@.~ +.$.&.,.p.l [ h.j.d.X X X X X X X X X X X X X X X X X X X X X X X X X ",
"J J J S J S Z S A 4 B +.G V N N Z N S _ A ( #.#._ X X X X X X X X X X X X X X X X X X X X X X X X X ",
"G J G S G Z V V B 3 V G N & 3 + 3 + 3 G N B L K ` X X X X X X X X X X X X X X X X X X X X X X X X X ",
"X X X X X X X X X O o o o o X o X X X X X o X o o o X X X X X X X X X X X X X X X X X X X X X X X X ",
"e e 0 e w 3.3.l l a a ; ; % a a i a a a *.%X1.D X X X X X X X X X X X X X X X X X X X X X X X X X X ",
"p y p 0 l s.x.s.s.j.j.e 5 5 p.i.y.y.[ y.rX7XpX' X X X X X X X X X X X X X X X X X X X X X X X X X X ",
"K K K G ' ,.,.] X o o Z K ~ ;X;X<X*X%X%XB o X X X X X X X X X X X X X X X X X X X X X X X X X X X X ",
"3 3 3 3 2 ( L L X X X & 3 B S J +.J Z H & X X X X X X X X X X X X X X X X X X X X X X X X X X X X X ",
"X X o o o o o o X X X X X X X X o X X X X X X X X X X X X X X X X X X X X X X X X X X X X X X X X X ",
"<X,.( =.S.uXY.j.j.y.l z >.iXO X X X X X X X X X X X X X X X X X X X X X X X X X X X X X X X X X X X ",
"sXrXS.1.,.R.d.u.*.{ ) ) =.4XO X X X X X X X X X X X X X X X X X X X X X X X X X X X X X X X X X X X ",
"GXGXGX~ Z R H H G T U U U Q X X X X X X X X X X X X X X X X X X X X X X X X X X X X X X X X X X X X ",
"D D S + o + O O O 1 = + * * X X X X X X X X X X X X X X X X X X X X X X X X X X X X X X X X X X X X ",
"M n n n n n M m * n Z M M m M m m o X X X X X X X X X X X X X X X X X X X X X X X X X X X X X X X X ",
"qX0X@X@X@X3X0X0XG @X0X0X0X@X0X0X3X= X X X X X   X X X X X X X X X X X X X X X X X X X X X X X X X X ",
"=.' T o.O.E T T 3 E ^ Y.d.{ >.l./.7.7.7.q.9.0 9 X X X X X X X X X X X X X X X X X X X X X X X X X X ",
"u g 4 6.c t 4 4 5 e r r.w.8.7.0.L.e.e.x.K.K.Y.k X X X X X X X X X X X X X X X X X X X X X X X X X X ",
"N N 3 3 2 2 B B $ V Z       X & Z >X1X>XF N N + X X X X X X X X X X X X X X X X X X X X X X X X X X ",
"P { P ^ +X2X2X&X# & & X X X X O & I I I & O O o X X X X X X X X X X X X X X X X X X X X X X X X X X ",
"k.k.k.+X3XeXeX6Xo X X o X X X X X X X X X   X   X X X X X o X X X X X X X X X X X X X X X X X X X X ",
"'.{.NXbX}.^.Y./.oX`.E.BXBXNXvXbXzXbXhX^.7.w x c 5.6.5.i z w X X X X X X X X X X X X X X X X X X X X ",
"x._.[.}.`.h.).).}.{.).{.hXhX{.E.l.l.f.5.q . q q w u r 9 r : X X X X X X X X X X X X X X X X X X X X ",
"Y.f.f.).^.8.^.`.`.`.].r.g.h.z.u.X X X X X X X X o o X X X X X X X X X o X X X X X X X X X X X X X X ",
", < , d d s s d J.F.b.C. .Y A.:.U v } M.m.m.b.M.V.V.V.!. .S.yXT.U.Y.b Q v < X X X X X X X X X X X X ",
"d f 0 b b B.M.n.J.G.F.F.b j A. .W  .M.Z.N.N.C.C.V.B.M.U.W }  .B.n.6.j s d , X X X X X X X X X X X X ",
"w.w.4..XXXVXVXnXI.L.t.t.L.t.L.^.[.Z.Z. Xb.b. XZ. X .s X X X X X X X X X o X X X X X X X X X X X X X ",
"r.e.8.[.R.[ U.!.VX.X(.NXNXNX(.'.fXz.z.SXjXW.h < 7 O o X X X X X X X X X X X X X X X X X X X X X X X ",
"~.0.s.tX>.i d.Q.NXbXoXmXMXSX'.'.fXc.z.FXzX_.A 4 $ $ $ @ 5 5 5 s B # # $ < 5 5 9 > $ o X X X X X X X ",
"u.z [ k p p [ p p E.[.p y.g.a.p.p._.E.a a { _.h.d.l p t ).'.(.uXyX{ k z |./.c.'.0.5.% X X X X X X X ",
"; ; ; : ; $ ; ; ; L { % ; - $ ; : y f ; 4 : ) L t : ; $ g k k _ _ t 5 4 h g P y w : @ X X X X X X X ",
"O # # O # @ - - # # @ $ # # # 1 1 1 # * & # o o O @ @ + & # O + * - # O o @ $ & O # # # O O # X X X ",
"jXxXxX;X:Xx.kXNXzXgXgXhXlXzXFXDXDXDXMXP.NXmXQ h a q.l.;XfXdX;XuXxXZXQ.d.#X8XGX#X$X,X]./.&.-X2.X X X ",
"kXhX{.tXrXl.l.R.<Xl.l.l.E.}.cXvXbXuX!.~.].uX@._ { q.p.*.<X<Xk.R.tXsXpXtX&XCXAX8X=XP u.[ J ' _ X X X ",
"lX}.L.{.tX&.L D ] 7 1 C h.L. X|..XU.B.7.h.Y.~ #.1.e.3.8 +XOXa.o.S.sXCXCX<XpXwXCX=X@ X X X X X X X X ",
"x Y..X&XOXOXE.}.ZXtXR.@X+X%.z./..X] @.4X-.$.y &XwX0.a.3.a.0.e.aX8X) ..X.hXtXpX8X2X .<.<.S.6 X X X X ",
"d U.oX4X4X4X/.(.tXE.E.+X$.*.h.x.P...#.*X%X1.k 2.aXz.i.i l l 3.:./ < < q l.>.-.OX` s W @.6.=   X X X ",
"W R.oXlXkXBX.XL.8 r.L.r p a H.H.P.l.>.+.%.-Xx f.).gX>.X   X   X o X X X X X X X X o X X X X X X X X ",
"* - 7 7 A E 5 >   > > @ @ @ . . . ; ; @ 1 1 # - 5 7 ; X X X X X X X X X X X X X X X X X X X X X X X ",
", * , 9 ; * 3 2 0 , = q w g , , : q 9 0 % # , > . X X X X X X X X X X X X X X X X X X X X X X X X X ",
"Q Q m.g.d.! ! ^ r.D.9X^.(..Xv.M.j.~.r.c.p < v n.G.    X X X X X X X X X X X X X X X X X X X X X X X ",
"X.X.| f.f.:.=.] u.|  .f.h.~.b 6.8.u u 0 % * < < .   X X X X X X X X X X X X X X X X X X X X X X X X ",
"o...h ..O.#.,...) g g ) c 7.3.3.8.; X X X X X X X X X X X X X X X X X X X X X X X X X X X X X X X X ",
"X X X X X X X X X o X X o X X X X X X X X X X X X X X X X X X o X X X X X X X X X X X X X X X X X X ",
"J ` J ` ` J ` +.R @.%.+.+.#.+.@.@.%.&.` R J @.+.@.K R S -.%.%.1.%.#.+.@.` ` #.R +.+.#.-.-.7 o o X X ",
"%X&.%X&.&.$.&.&.%X7XiX=X=X:X&X;X*X:X;X&.-.&.%X%X%X@.$.@.pXiX;X=X&.&X:XiX%X;.%X*X%X%X7XiXpXJ o o X X "
};
