/* XPM */
static char *hel_kame[] = {
/* columns rows colors chars-per-pixel */
"50 50 236 2 ",
"   c #090703",
".  c #0C0B04",
"X  c #120E07",
"o  c #161206",
"O  c #191606",
"+  c #1C1807",
"@  c #15130A",
"#  c #1B1509",
"$  c #1D1A0A",
"%  c #1C1A13",
"&  c #271A0E",
"*  c #231D0C",
"=  c #271E11",
"-  c #25210D",
";  c #29240F",
":  c #2B2512",
">  c #292515",
",  c #2D2A1B",
"<  c #342314",
"1  c #392617",
"2  c #332C15",
"3  c #342C1A",
"4  c #3C2B1C",
"5  c #393316",
"6  c #36311A",
"7  c #3B351B",
"8  c #3D391D",
"9  c #392E22",
"0  c #353223",
"q  c #3C3626",
"w  c #36352C",
"e  c #432D19",
"r  c #41331D",
"t  c #4A361B",
"y  c #423C1E",
"u  c #57381E",
"i  c #423326",
"p  c #473825",
"a  c #4B362C",
"s  c #433D2B",
"d  c #583926",
"f  c #653D2A",
"g  c #454124",
"h  c #4B4523",
"j  c #4E4825",
"k  c #46432B",
"l  c #4B442A",
"z  c #4E4A2C",
"x  c #584726",
"c  c #524B26",
"v  c #544D2A",
"b  c #5B532C",
"n  c #47443A",
"m  c #544C35",
"M  c #5B5535",
"N  c #65462B",
"B  c #6B442C",
"V  c #754D2C",
"C  c #65552E",
"Z  c #6A4C33",
"A  c #794B35",
"S  c #695737",
"D  c #625B34",
"F  c #7B5637",
"G  c #6A653C",
"H  c #79663B",
"J  c #4A4A49",
"K  c #595549",
"L  c #774E44",
"P  c #625842",
"I  c #6B6546",
"U  c #736C42",
"Y  c #7B6A45",
"T  c #767146",
"R  c #7A7344",
"E  c #7B754A",
"W  c #7E784B",
"Q  c #6A6756",
"!  c #766954",
"~  c #7B7656",
"^  c #767469",
"/  c #865739",
"(  c #84533C",
")  c #8C523B",
"_  c #8C613D",
"`  c #93663C",
"'  c #8A5A45",
"]  c #965D45",
"[  c #9E5853",
"{  c #A35C57",
"}  c #896646",
"|  c #996846",
" . c #857646",
".. c #827C4C",
"X. c #8B7B4B",
"o. c #947B4D",
"O. c #847D52",
"+. c #897A55",
"@. c #997558",
"#. c #A56849",
"$. c #AA6C4C",
"%. c #A9734A",
"&. c #B2774E",
"*. c #A96C53",
"=. c #B56D58",
"-. c #A97756",
";. c #B47553",
":. c #B57B56",
">. c #BC7B5B",
",. c #877A63",
"<. c #937D63",
"1. c #B77162",
"2. c #C27A5D",
"3. c #C67C62",
"4. c #8B804E",
"5. c #93824E",
"6. c #868052",
"7. c #8B8355",
"8. c #8A865A",
"9. c #8D865A",
"0. c #948552",
"q. c #9A8652",
"w. c #948955",
"e. c #9A8A55",
"r. c #98855D",
"t. c #938B5B",
"y. c #9C8D59",
"u. c #96915E",
"i. c #9C915C",
"p. c #BA804D",
"a. c #A38E58",
"s. c #B98557",
"d. c #A3925D",
"f. c #AA9A5E",
"g. c #B9945B",
"h. c #8A8664",
"j. c #968967",
"k. c #9C9363",
"l. c #9B9769",
"z. c #918B74",
"x. c #9A9572",
"c. c #A58A68",
"v. c #BC8461",
"b. c #BA8A66",
"n. c #A49662",
"m. c #A49A66",
"M. c #AA9964",
"N. c #A49C6A",
"B. c #AB9D6B",
"V. c #BB976A",
"C. c #B49D6B",
"Z. c #A79975",
"A. c #B89A73",
"S. c #ADA16C",
"D. c #B7A36E",
"F. c #ACA375",
"G. c #ABA67A",
"H. c #B7A675",
"J. c #B5AB7C",
"K. c #BDAC7C",
"L. c #BAB17F",
"P. c #C28454",
"I. c #C3845C",
"U. c #C7895A",
"Y. c #CE925D",
"T. c #C48462",
"R. c #C48B65",
"E. c #CB8967",
"W. c #D28D69",
"Q. c #C5926B",
"!. c #C7976A",
"~. c #D5946B",
"^. c #CB8C71",
"/. c #D28F71",
"(. c #CB9A74",
"). c #D59373",
"_. c #DB9975",
"`. c #E29D79",
"'. c #CCA06D",
"]. c #C6A77A",
"[. c #DAA479",
"{. c #E3A27C",
"}. c #8C8D89",
"|. c #A49F8D",
" X c #ACA586",
".X c #B2AD84",
"XX c #BAAD84",
"oX c #BCB284",
"OX c #BAB488",
"+X c #ABA896",
"@X c #BBB691",
"#X c #B1B1B1",
"$X c #C6AB84",
"%X c #D6AB85",
"&X c #C5B687",
"*X c #C4B589",
"=X c #CCB48A",
"-X c #CEBA8D",
";X c #D1B58D",
":X c #D7B98D",
">X c #C3BC94",
",X c #D5BA94",
"<X c #E6A783",
"1X c #CEB7AB",
"2X c #C8C196",
"3X c #CCC49C",
"4X c #D2C39B",
"5X c #D8C39B",
"6X c #E1C49A",
"7X c #CBC5A2",
"8X c #CEC9A4",
"9X c #D7CCA7",
"0X c #D9D2AE",
"qX c #C9C5B5",
"wX c #DACEB3",
"eX c #DBD6B7",
"rX c #DCD4B4",
"tX c #E5CCA3",
"yX c #E6CEA6",
"uX c #E9D3AB",
"iX c #E2DABB",
"pX c #CDCBCB",
"aX c #DEDAC3",
"sX c #E4DEC3",
"dX c #E2DDC9",
"fX c #E4E1C3",
"gX c #E7E4CC",
"hX c #EAE7D2",
"jX c #EDEDDB",
"kX c #EDEDE1",
"lX c #EFF1E2",
"zX c #F1F3E4",
"xX c #F4F4EB",
"cX c #F6F6F2",
"vX c #F8F8F5",
"bX c #FAFBFD",
/* pixels */
"7.7.6.7.7.t.s W t.t.6.W H T U % T G T G H U R H D - 8 - + o o o + + @ @ + $ $ $ - - . + O O + + + + ",
"6.6.6.6.6.7.q W w.6...W ....E - T T W H D h 5 - O   O @ O O o O $ $ @ O $ - $ $ - - . + + o o + + + ",
"6.7.w.7.8.7.q E t.w.6.R W 6.7.6 b j 5 - * + O + O   O @ O O O O + $ @ + $ - + - - -   O o O + + O + ",
"O.6.9.t.t.t.q E 7.u.t. .G c 5 O - - - - + + + + O   + + $ + $ + $ - . - - - - - - > . - + + + + + + ",
"6.4.7.t.t.u.7 G D h 5 5 5 2 2 + + - ; - - - * * + . $ + $ $ - $ - - . - - - - - ; > o - + + + - - - ",
"t.t.4.G v y o 5 y y h y 8 7 2 - $ : ; ; - - - - $ . - * - - - ; > > @ - - - - - > - + 2 ; ; ; 5 5 y ",
"j 8 5 5 8 8 @ 8 y h h h h 8 8 : $ 6 , : > 2 ; 5 ; @ ; - ; 2 2 2 5 5 . 5 5 5 2 2 5 2 > j j c c b c b ",
"g y y y y g o h h c c j h h p 6 - y 8 2 j D H _ D - j h y y y 8 y y @ 8 8 8 y g j j 2 v c c c c c b ",
"4.D c j h h @ g h b M b v c j y * h C N t 1 t t t * d x C b h c z j @ j g j z c z 6 8 M b D G G G W ",
"pXQ z p 0 0 . 6 8 z z g g y 8 6 $ b h 2 - * ; & *   * & < 1 : : > , @ 8 8 8 0 8 8 > , g 8 g g k z M ",
"9XpXpX#X#X#X, ~ h z z z l k g l % 4 ; & ; & & & *   < 1 < e t S G z - b k z z M M 0 k T ~ h.8.z.8.h.",
"M U k.@XdXvXJ bXgXf.G U T R .. .= x e 1 e 1 4 4 < . e d d r d C W G , G T l.G.G.G.G 8..Xl.l.N.l.8.u.",
"b M D G G W w 7X3X4.U U U T e._ = x Z x N A B f f X d B / B N V H 4.z l.6.L.3XOXl.M 6.l.u.i.l.S.l.l.",
"M D G I I U > E T T E O.W t.5.F < ' | ' $.#.;.A ( & u f ) ) / _ c G M u.6.G.OXL.G.M T N.l.i.i.i.u.u.",
"I I U U T T > ~ 8.8.8.h.N.S. .} i | A | ;.&.#.) #.< f $.2.T.s.I.4.y D u.l.m.N.l.u.z G 8.t.4...7.w.6.",
"T E ~ O.O.8., h.l.x.x..X>XS. .-.a ).R.E.).W.E.`./.d >.W.W.E.T.T.S.y D N.N.u.u.8.8.k M W 7.T W W 6.6.",
"~ 8.l.l.x.G.0 .X@X@X7XwXeX].c.(.d %X`.`.`.`.`.{.`.f E.).W.E.I.E.(.Z s m.k.t...6.8.k b T R W W O.w.m.",
"x.G. X.X@X7Xw aXgXjXjXkXvXXXA.:Xa {.{.<X<X<X`.{.<Xd ).`._.~.T.E.%X} q 7.8...E O.O.q I 6.+...4.0.i.m.",
".X@X7XqXfXlXJ cXvXvXvXbXvXZ.$X<Xi [.<X<X<X<X<X<X<Xa /.>.L Z F | ].<.r E E W 6.8.W : 7 y D X.5.0.J.H.",
"gXlXxXbXbXbXJ bXbXbXbXcXaXy.V.[.i <X<X_.R.T.W./.E.9 | f d N L | -.<.l 0.t.OXOXt.E 0 D  .0.e.a.S.&XL.",
"bXbXbXbXcXlXn hXfXeXeX8X*Xo.@.(.i '.o.N p f ) $.E.1 ] ) ` =.;.&.>.,.P H.0XiXrXoXt.s w.n.n.M.M.*X3XH.",
"eX8X7X>X>X>Xw >X>X>X>X@XXXX. .(.9 } Z F ( ) ) ] `.e $.) f d A | ;.+.! 1XxXcXxXuXK.l +.d.a.o.0.d.*Xf.",
".X.X.X.X.X.Xw J.G.G..X.XoX .Y (.9 *.%.s.| ' ] $./.i ;.#.] f ' A $.' ,.wXvXxXsX=XC.l X.a.a.q.y.B.H.L.",
"F.G.G.G.F.F.0 l.l.k.F.2X*Xj.} %X9 %.| B p ] *.2.^.d 2.>.=.$.#.=.>.' z.=X,X:XD.M.d.l  .e.q.e.y.d.H.L.",
"G.J.F.m.k.6.> O.O.7.*XeXhXdXo.;Xi %./ ' ] $.U.W.1.L E.T./.)._.W./.' ,.$X3.1.M.f.a.D G f.a.e.q.q.5.5.",
"..O.7.7.7.t., j.t.J.vXbXbXvXj.%Xi I.U.>.2.~._.`.@.' ^.3./.`.`.`._.@.! %X^.^.a.a.a.G b e.5.5.5.X. .H ",
"O.t.l.l.k.t.> 7.9.j.B.K.A.Z.C.].p [.[.`.{.{._.`.L -.^.^.3._.`.).).-.Q V.3.(.q.0.5.G c 5.5.5.5.5. .H ",
"O.O.8.6.O.O., O.9.8.O.+.r.%X).'.s <X<X`.<X`.2.W.i ] ] ' 2.W././.^.*.! b.1.^.q.q.5.H c 5.5.5.5.X.H  .",
"9.h.t.k.l.k., l.k.+.6.O.-.#.$.U.s [.{.{.`./.I.#.& A | *.2.3.E.E.R.@.P b.3.Q.q.q.5.H j w.w.e.w.X. . .",
"l.k.l.J.XXB.9 k.l.t.t.9.j.2.W.$.9 _.~.~.~.~.W.I.e ] ' ' ' #.;.3.v.-.a >.^.V.q.q.q.H h e.e.i.w.w.e.e.",
"F.F.F.F.F.F.0 Z.F.B.n.k.k.R.2.=.1 !.Y.U.W.U.*.] d ' >.#.( f d *.:.} 9 v.Q.m.y.y.e.w.6 i.i.w.w.w.w.5.",
"2X>X@X2X*X.Xq XXXXJ.G.F.F.F.U.2.1 !.U.p.U.F B *.A f [ [ [ ' e F #.} , n.d.n.n.i.i.d., i.i.i.u.i.i.w.",
"fX0X0XiXeX|.Q 3X7X7X7X8X3X>X].W.1 -.p.p.p.u V ) f a [ { { ] A B _  .> M.M.d.m.n.d.S.0 L.S.m.B.m.m.d.",
"cXbXbXbXbX}.+XsXsXiXiXiXrX9X8X[.1 | _ o.` N ` %.[ f 1.1.;.;.F B F } > B.M.f.m.n.S.rXJ xX2X5.5.4.4.4.",
"vXcXzXzXkXJ aXgXgXgXgXgXdXsXrX9Xn F.H _ ` x | %.A < f f | $.V d / } , C.B.B.B.m.H.iXJ bX9Xm.m.m.l.d.",
"jXhXhXhXgXn fXdXsXiXiXwXtX9XtX9Xq -X_ / / t / #.A < f ) &.&.u p C P 9 B.S.S.S.B.J.hXJ bXfX2X&XOXXXJ.",
",.j.z.z.x.w  X X XXX$X*X$X7X9X=Xq &Xq.V V e u %.[ d [ =.#.) e 4 p +.s A.S.S.S.S.oXxXJ bXbXvXcXkXaXaX",
",.h.z.z.Q w ! P P n s s a s s s @ 0 3 * o o + < < & e a e t < 1 9 c.w N.k.k.k.i.t.l.w @X+X+X#X#X#X#X",
"G.4X9X3X^ h.*XoXXXF.A.C.D.*X].$X0 '.p.g.e ; < e < # < & & X @ @ i m % s s s s s k m % K Q ! ! ~ ^ ,.",
"J.J.oXoXm G.2X>XK.C.C.C.K.].K.-X8 g.a.'.` < ; ; # X < < & = i S Q.%Xa B.S.B.m.m.B.OXw eXdXaXaXeXwX8X",
"2X2X9XiXn zXzXgXiXK.D.D.4X].K.4Xp V.g.V.Y.` t ; # X & & = r L b.Q.[.i B.B.m.m.m.S.3XJ kXbXbXbXcXcXkX",
"3X8X9X9Xn eXfXuX9X].'.:X4XK.].>Xm g.g.V.Y.p.` x < * e t B } s.b.^.(.i C.M.n.n.m.J.vX^ dXbXbXbXbXbXvX",
"fXhXjX#X^ gXgXiXfX&X].2X-X=X2XoXb g.f.!.Y.P.p.` f e F ` -.-.s.Q.!.(.i K.n.n.n.m.B.wX^ +XaXhXcXcXzXkX",
"bXbXbXqX}.vXbXvXzX3X].&X].].-XZ.C g.g.'.Y.U.P.p.V u | &.:.:.R.!.Q.Q.9 ;XK.H.B.n.N.J.~ |.xXzXxXkXjXxX",
"iXiXhX.XQ 4X2X&XK.S.-X-X].].5X+XP =X'.'.Y.P.P.p./ N #.&.s.R.Q.Q.E.!.4 %X(.%.].B.M. Xz.}.bXbXxX3X*XoX",
"L.4XfXx.P J.J.H.H.M.=XK.-X&X-X XE 5X'.[.Y.P.P.P./ N &.:.R.R.Q.E.R.R.9 '.(.:.].9X,X*XZ.^ cXbXbXbXcXxX",
"H.2XeXk.P J.>XJ.B.y.C.D.0X0X2XZ.+.uX[.'.Y.P.P.P.| N s.s.v.R.Q.R.R.b.9 Q.Q.-.,X9X,X=XZ.P 0X0XG.J.XX$X",
"F.OX9Xh.P qX1X1XN.5.].V.9XyXyXZ.+.uX:XY.Y.U.P.P.| d I.I.I.R.R.R.R.R.4 E.-.(.,X,X;X=XZ.P =XwXJ.u.0. .",
"m.J.3X8.Q 1X1X1Xj.+.=X5XtXtXtXj.j.uXtX:XE.U.P.P.&.r :.s.I.T.R.R.R.R.9 ;.V.tX,X,X=X;XZ.L $X$X%X4X4X>X",
"i.S.2X7.K pXaX9XZ.;XyXtXtXtXtX,.Z.uXtX6X,X_.U.U.I.1 :.:.>.s.R.Q.Q.R.p A.,X,X,X,X,X,XZ.P =X=X;X=X=X;X"
};
