/* XPM */
static char *space[] = {
/* columns rows colors chars-per-pixel */
"50 50 162 2 ",
"   c #3E2731",
".  c #462A2F",
"X  c #492A2E",
"o  c #4E2B2D",
"O  c #4D2C2E",
"+  c #572D2B",
"@  c #5B2E2A",
"#  c #5C312A",
"$  c #422830",
"%  c #693227",
"&  c #6A3327",
"*  c #6C3727",
"=  c #643128",
"-  c #643429",
";  c #743524",
":  c #783623",
">  c #7B3622",
",  c #733926",
"<  c #753925",
"1  c #773B25",
"2  c #7A3A24",
"3  c #7B3C24",
"4  c #943D1C",
"5  c #863920",
"6  c #893E20",
"7  c #96411C",
"8  c #9A471E",
"9  c #9D471D",
"0  c #A84217",
"q  c #AD4316",
"w  c #A34019",
"e  c #A64118",
"r  c #A84A1A",
"t  c #A94C1A",
"y  c #AE4E19",
"u  c #B14415",
"i  c #B34716",
"p  c #B44A15",
"a  c #B54B16",
"s  c #B64F14",
"d  c #B64E17",
"f  c #B04E19",
"g  c #A35E19",
"h  c #B75114",
"j  c #B75017",
"k  c #B85117",
"l  c #B95514",
"z  c #BB5916",
"x  c #BD5D14",
"c  c #B85319",
"v  c #BB5719",
"b  c #B55C1E",
"n  c #BC591A",
"m  c #BC5A1B",
"M  c #BD5C1B",
"N  c #BC5B1C",
"B  c #BF6114",
"V  c #BF601D",
"C  c #8A4121",
"Z  c #C06512",
"A  c #C26813",
"S  c #C36B12",
"D  c #C36C12",
"F  c #C56E14",
"G  c #C0611C",
"H  c #C0621D",
"J  c #C3671F",
"K  c #C3681F",
"L  c #C57011",
"P  c #C67214",
"I  c #C77416",
"U  c #CA781F",
"Y  c #C56D20",
"T  c #C87322",
"R  c #CA7724",
"E  c #CB7B21",
"W  c #CC7C21",
"Q  c #CC7C23",
"!  c #CA7824",
"~  c #CD7D26",
"^  c #CD7E26",
"/  c #CF8223",
"(  c #CE8027",
")  c #CF8228",
"_  c #CF832E",
"`  c #D08326",
"'  c #D18626",
"]  c #D18429",
"[  c #D28729",
"{  c #D2872A",
"}  c #D3882A",
"|  c #D3892B",
" . c #D48B2C",
".. c #D58D2D",
"X. c #D18930",
"o. c #D48D33",
"O. c #D48F36",
"+. c #D79333",
"@. c #D79335",
"#. c #D59136",
"$. c #D89435",
"%. c #D89637",
"&. c #D79539",
"*. c #DA9938",
"=. c #DB9E3D",
"-. c #DC9E3E",
";. c #DB9F41",
":. c #DA9F45",
">. c #DDA342",
",. c #DEA443",
"<. c #DEA545",
"1. c #DDA446",
"2. c #DFA847",
"3. c #DFA849",
"4. c #E1AD4B",
"5. c #E2AE4D",
"6. c #E0AC4E",
"7. c #E3B04E",
"8. c #E1AE50",
"9. c #E3B253",
"0. c #E4B353",
"q. c #E5B554",
"w. c #E6B958",
"e. c #E7BB59",
"r. c #E6BA5A",
"t. c #E7BB5B",
"y. c #E6BB5E",
"u. c #E7BD5C",
"i. c #E8BE5D",
"p. c #E8BF5E",
"a. c #E8C061",
"s. c #E9C161",
"d. c #E9C261",
"f. c #E9C264",
"g. c #EAC565",
"h. c #E9C466",
"j. c #EAC567",
"k. c #ECC969",
"l. c #ECC96C",
"z. c #ECCB6F",
"x. c #EDCC6D",
"c. c #EBC772",
"v. c #EDCD70",
"b. c #EECF71",
"n. c #ECCA7C",
"m. c #EFD375",
"M. c #EFD37C",
"N. c #F0D679",
"B. c #F0D681",
"V. c #F2DA86",
"C. c #F2DB8D",
"Z. c #F3DE92",
"A. c #F4E29D",
"S. c #F5E3A1",
"D. c #F6E7AE",
"F. c #F8EBBB",
"G. c #F8EDC0",
"H. c #F9F0C9",
"J. c #F9F1CC",
"K. c #F9F0D2",
"L. c #FBF4D6",
"P. c #FCF8E3",
/* pixels */
"u u u u u u @                 & u u 4                   w u u @                 & k k k k k r       ",
"u u u u u u @                 & u u 4                   w u u @                 * h k k k k t       ",
"u u u u u u @                 & u u 4                   w u u @                 * c k k c c t       ",
"u u u d k d #                 $ X o X   $ X w w w       w u u e w e =           & u u u u u e       ",
"u u u d k k #                             o u u u       w u u u u u &           & u u u u u w       ",
"u u u k k k #                             X u u u       w u u u u u &           & u u u u u w       ",
"@ @ @ # # # .     ; 4 4 4 4 4 ;     + 8 8 9 d d d 4 4 4 q u u a d d *           X @ @ @ @ @ +       ",
"                  5 u u u u u 5     # d k k k k k u u u u u u d k k *                               ",
"                  5 u u u u u 5     # k k k k h k u u u u u u d k k *                               ",
"                  6 a d a d d 6     # k k y * * * u u u a d d d k k *     = C C C C C 2             ",
"                  C k k k k k C     # k k r       u u u d k k k c k &     3 k k h l d 8             ",
"                  C k k k k k C     # k k t       u u u d k k k c c *     2 k k k k h 8             ",
"                  - 3 3 3 3 3 -     o 3 3 ,       u u u x B B k d a &     3 k k c k k r ; : ;       ",
"                                                  u u u S L L d u u &     3 k k k k k d u u e       ",
"                                                  u u u S L L h u u &     3 k k k k k d u u w       ",
"      = & & X                 o & * #             u u u S L L s u q &     3 k c l x x l u u 0 * * * ",
"      w u u @                 & u u 4             u u u S L L d u u &     3 k k x L L Z u u u k k j ",
"      w u u @                 * u u 4     $       u u u S L D h u u &     3 j j x D L Z u u u k k j ",
"      w u u ; # @ X     o @ @ > u u 4     $ @ # # c c c D L L h u a &     3 j d x I I S k h k k j l ",
"      w u u u u u &     : u u u u u 4     X u u u ^ ^ ^ L L L z k c *     ; u u n ^ ^ Q L L D k c c ",
"      w u u u u u &     : u u u u u 4     X u u u ^ ^ ^ L L L z k k &     ; u u n ^ ^ U D L D k j j ",
"X o o e u u u u u &     : u u u p p 7     o u u u ^ ^ ^ P D D z k k < o o 5 u u N ` ( ! L L D k j j ",
"u u q j c k u u u &     : u u l S L g     o k c k ^ ^ ^ v k h d k k p u u a k k Y  ...[ L L D k l j ",
"u u u j d k u u u &     : u u l L L g $   o h k k ^ ^ ^ v c c c k v u u u a k k Y ] ..[ L L D k c j ",
"u u u j k k u u u &     ; u u l L S g     + k k k ^ ^ ^ v k k k k k a u u a k k Y .. .` L D S c c j ",
"k k k ! ^ ^ M k k *     2 c k H ~ ~ T k h k k k k ......n k k S L L x k k k k k Y .... .~ ^ ~ d j j ",
"k k k ! ^ ^ M k k *     3 k k H ~ ( T k k k k k k ......n k k S L L x k k k k k J  ...} ~ ` ! d k k ",
"k k k ! ^ ^ M k k *     3 k k H ^ ^ T k k k k k k ......n k k Z L D x k k k k k Y  ...} ^ ^ ! c k k ",
"k j c ` .. .^ ! ! b t r y k h J  . .) L D S c k k v.v.z._ ! ! ^ Q Q G k k J R ~ o.q.q.4. ... .! ! E ",
"k c j [ ....` ^ ( V k h k k k J  . .) L L D k k k N.N.N.X.^ ^ ^ ^ ^ G c k J ^ ^ @.e.w.8.....| ^ ^ ^ ",
"k k j [ ....) ^ ^ V k k k k h Y ....' L D D c c k N.N.N.X.^ ^ ^ ^ ^ H k k J ~ ( &.e.w.8..... .^ ^ ^ ",
"T T T 4.8.5.X.^ ^ ! T T T T T ( ....} W E U Z S S N.N.N.@.} } J M n v k k J ~ ~ &.e.e.i.f.f.i.^ ^ ^ ",
"^ ^ ^ 0.e.e.o.^ ^ ^ ^ ^ ^ ^ ^ ` ....| ^ ~ ~ L L L N.N.N.%.....V l j j l d Y ~ ~ &.t.e.g.m.N.v.~ ^ ~ ",
"^ ^ ^ 0.e.e.o.^ ^ ^ ^ ^ ^ ^ ~ ] .... .~ ^ E L D L N.N.N.%.....V c j c c d Y ^ ~ &.e.w.g.N.N.z.~ ` Q ",
"^ ^ ^ f.v.z.5.1.4.o.^ ^ ` ~ ~ &.e.t.5. .} } ` ` ` g.j.j.+...o.R Y Y Y Y Y ! ^ ^ ..;.-.4.N.N.z.^ ^ ~ ",
"^ ^ ^ z.N.N.d.e.w.#.^ ^ ~ ~ ~ :.N.N.g....... . . .e.e.e.@... .` ~ ~ ~ ~ ^ ^ ^ ^ ^ ....-.N.N.v.~ ~ ^ ",
"^ ^ ^ c.N.N.d.e.e.#.~ ^ ~ ~ ~ <.N.N.j... . . .} ..e.e.e.+.....` ~ ~ ~ ~ ~ ~ ~ ^ ^ ....=.N.N.z.^ ~ ^ ",
"[ [ [ 6.8.0.q.e.e.4.=.;.@.` ` ;.k.k.e.....' 4.4.4.j.k.j.+... .` ^ ` o.=.=.@.` ` ......=.k.k.a.` }  .",
" ...........5.e.e.e.e.e.,.....:.e.e.5.....$.e.e.q.N.N.N.%.....` ^ ^ 4.e.e.;. .........*.e.e.q.......",
"............0.e.e.e.e.e.,.....=.e.e.5.....+.e.e.e.N.N.N.%.....` ^ ^ ;.e.e.4...........*.e.e.q.......",
"......=.=.=.e.j.f.i.e.e.5.=.=.4.e.e.5.....@.e.e.e.N.N.N.4.=.=...^ ^ 4.e.e.4.=.=.-.-.=.4.g.j.i.=.=.=.",
"......q.e.w.m.N.N.h.e.e.e.e.e.w.e.e.5.....+.e.e.e.N.N.N.e.e.e.*...} 4.w.e.e.e.e.t.t.e.g.b.N.m.e.e.e.",
"......q.e.e.v.N.N.f.e.e.e.e.e.e.e.e.8. ...+.e.e.e.N.N.N.i.e.e.*.....4.t.e.e.e.e.e.e.e.p.N.N.m.e.e.e.",
"*.*.*.e.d.d.B.A.A.z.d.d.l.n.n.c.d.d.e.*.*.=.d.d.d.Z.C.A.f.f.d.,.*.*.4.e.e.e.e.e.p.a.d.v.Z.Z.C.g.i.j.",
"e.e.e.m.N.N.H.P.P.S.N.N.D.P.P.F.N.N.v.e.e.d.N.N.N.P.P.P.V.N.N.d.e.e.e.e.e.e.e.e.j.N.B.Z.L.P.L.N.N.N.",
"e.e.e.m.N.N.H.P.P.Z.N.N.D.P.P.F.N.N.v.t.e.d.N.N.N.L.P.P.C.N.N.i.e.e.e.e.e.e.e.e.g.N.N.Z.P.P.L.N.N.N.",
"e.e.e.N.C.V.K.P.P.S.N.N.D.P.P.G.V.V.N.i.i.d.N.N.N.P.P.P.Z.B.C.j.p.p.p.p.y.a.p.g.k.V.Z.S.P.P.L.N.N.N.",
"e.e.e.L.P.P.P.P.P.S.N.N.D.P.P.P.P.P.J.N.N.N.N.N.N.P.P.P.P.P.P.C.N.N.N.N.N.N.N.N.S.L.P.P.P.P.L.N.N.N.",
"e.e.e.K.P.P.P.P.P.S.N.N.D.P.P.P.P.P.H.N.N.N.N.N.N.P.P.P.P.P.P.A.N.N.N.N.N.N.N.N.S.P.P.P.P.P.L.N.N.N.",
"e.e.e.K.P.P.P.P.P.S.N.N.D.P.P.P.P.P.H.N.N.N.N.N.N.P.P.P.P.P.L.A.N.N.N.N.N.N.N.N.A.P.P.P.P.P.L.N.N.N."
};
