/* XPM */
static char *wall[] = {
/* columns rows colors chars-per-pixel */
"50 42 161 2 ",
"   c #3E2731",
".  c #3F2831",
"X  c #432932",
"o  c #432A32",
"O  c #452A32",
"+  c #472B32",
"@  c #472C32",
"#  c #4B2D33",
"$  c #492E33",
"%  c #4C2D33",
"&  c #4E2E33",
"*  c #523034",
"=  c #543134",
"-  c #553235",
";  c #573335",
":  c #573435",
">  c #5D3436",
",  c #593835",
"<  c #5E3936",
"1  c #623736",
"2  c #653837",
"3  c #663837",
"4  c #673937",
"5  c #643E37",
"6  c #683937",
"7  c #6C3B38",
"8  c #6C3D38",
"9  c #733E39",
"0  c #734039",
"q  c #754039",
"w  c #734539",
"e  c #72473A",
"r  c #75443A",
"t  c #74463A",
"y  c #79433A",
"u  c #7A443A",
"i  c #7B443A",
"p  c #7C493B",
"a  c #7F483B",
"s  c #7A4C3B",
"d  c #7E4C3B",
"f  c #7E4F3C",
"g  c #7D4A41",
"h  c #705246",
"j  c #7C5848",
"k  c #80483B",
"l  c #80493B",
"z  c #854D3C",
"x  c #864D3C",
"c  c #84533D",
"v  c #8C533E",
"b  c #8B563E",
"n  c #8C553E",
"m  c #8F5A3E",
"M  c #90563E",
"N  c #93593F",
"B  c #955A3F",
"V  c #965D3F",
"C  c #824E41",
"Z  c #885343",
"A  c #8E5540",
"S  c #985C40",
"D  c #985F40",
"F  c #995F40",
"G  c #976147",
"H  c #9A6040",
"J  c #9B6040",
"K  c #9F6241",
"L  c #9B6346",
"P  c #91604B",
"I  c #9A6549",
"U  c #9B664A",
"Y  c #886B59",
"T  c #986B57",
"R  c #90715E",
"E  c #A26542",
"W  c #A56742",
"Q  c #A66843",
"!  c #A66944",
"~  c #A76A44",
"^  c #A86B46",
"/  c #A86C46",
"(  c #AA6F49",
")  c #AA7049",
"_  c #AC724C",
"`  c #AC744C",
"'  c #AD744C",
"]  c #A47757",
"[  c #AD7A53",
"{  c #B07950",
"}  c #B17C52",
"|  c #B37F54",
" . c #B37F56",
".. c #A07663",
"X. c #B38055",
"o. c #B48056",
"O. c #B58259",
"+. c #B7875B",
"@. c #BB8D5F",
"#. c #B28567",
"$. c #B48D63",
"%. c #BA8960",
"&. c #BB8B62",
"*. c #BA8F64",
"=. c #BD8F65",
"-. c #BE8F68",
";. c #BE9364",
":. c #BD9366",
">. c #BF9465",
",. c #BF9069",
"<. c #AF8972",
"1. c #C09667",
"2. c #C0926A",
"3. c #C1946A",
"4. c #C29969",
"5. c #C39A6A",
"6. c #C39B6B",
"7. c #C49C6C",
"8. c #C49C6D",
"9. c #C69E6F",
"0. c #C59A70",
"q. c #C69B73",
"w. c #C69F70",
"e. c #C79D73",
"r. c #C7A071",
"t. c #C8A172",
"y. c #C9A374",
"u. c #CAA475",
"i. c #CBA677",
"p. c #CBA778",
"a. c #CCA778",
"s. c #CCA67B",
"d. c #CCA879",
"f. c #CEAA7C",
"g. c #CFAC7D",
"h. c #CFAC7E",
"j. c #D0AB83",
"k. c #D1AF81",
"l. c #D1AC84",
"z. c #D2B083",
"x. c #D2B084",
"c. c #D4B486",
"v. c #D5B587",
"b. c #D5B588",
"n. c #D6B48B",
"m. c #D7B88B",
"M. c #D9BB8E",
"N. c #D9BC8F",
"B. c #D9B990",
"V. c #DABD90",
"C. c #DBBE92",
"Z. c #DCBF92",
"A. c #DDC195",
"S. c #DEC296",
"D. c #E1C69B",
"F. c #E3C99F",
"G. c #E3CA9F",
"H. c #E5CDA2",
"J. c #E6CEA4",
"K. c #E7D0A6",
"L. c #EAD4AA",
/* pixels */
"W W { 4.4.4.4.*.9 9 9 9 9 9 9 9 9 9 M W W W W W W W W W W W W } 4.4.4.4.4.4.4. .Q W #   # 9 9 9 9 9 ",
"W W { 4.4.4.4.*.9 9 9 9 9 9 9 9 9 9 M W W W W W W W W W W W W } 4.4.4.4.4.4.4.X.W W #   # 9 9 9 9 9 ",
"W W { 4.4.4.4.:.P P T ..............#.-.2.~ Q V d d n N N M N I ] ] ] ] ] ] ] U n N @   & 9 9 i z z ",
"W W { 4.4.4.4.4.4.4.v.L.L.L.L.L.L.L.L.L.L./ W c     1 9 9 9 9 9 9 9 9 9 9 9 9 9 9 9 X   & 9 9 N Q W ",
"W W { 4.4.4.4.4.4.4.v.L.L.L.L.L.L.L.L.L.L./ W c     1 9 9 9 9 9 9 9 9 9 9 9 9 9 9 9 X   & 9 9 N W W ",
"W W { 4.4.4.4.4.4.4.a.m.m.f.a.a.p.f.z.M.m.^ W c     X & & & # # & X # # # # & X # &     # 9 9 n W W ",
"W W { 4.4.4.4.4.4.4.y.k.k.9.4.4.4.4.y.k.k.^ W c           X     .       . .             # 9 9 N W W ",
"W W { 4.4.1.:.:.4.4.y.k.k.7.4.4.4.4.p.k.k.^ W c     X X X X X X X X X                   & 9 9 N W W ",
"W W { 4.4.' W / 4.4.y.k.k.7.4.4.4.4.u.k.k.^ W c     1 9 9 9 9 9 9 9 # . .               & 9 9 M W W ",
"W W { 4.4.' W / 4.4.y.k.k.9.4.4.4.4.a.k.k.W W c     1 9 9 9 9 9 9 0 @ .               . & 9 9 N W W ",
"v v L | | ( W / 4.4.9.u.u.6.4.4.4.4.w.u.u.^ W c     t v n <.<.<.<.<.R Y Y Y Y j w e X . & 9 9 M W W ",
"9 9 x W W W W / 4.4.4.4.4.4.4.4.4.4.4.4.4.! W c     c W ( L.L.L.L.L.b.z.k.k.k.@.Q E #   # 9 9 S W W ",
"9 9 x W W W W ^ 4.4.4.4.4.4.4.4.4.4.4.4.6.W W c   X c W ^ L.L.L.L.L.m.z.z.z.f.@.Q Q # . & 9 9 n W W ",
"9 9 q y y V W ^ 4.4.4.4.4.4.4.4.4.4.| ^ ^ W W V 7 7 M W ^ v.c.f.r.r.7.4.7.7.4.X.E Q @   # 9 9 N W W ",
"9 9 9 9 9 V W ^ 4.4.4.4.4.4.4.4.4.6.} ^ W W E V 9 9 N W ^ k.k.a.4.4.4.4.4.4.4.X.Q E @ . # 9 9 N W W ",
"9 9 9 9 9 M V E @.@.@.@.@.@.@.@.@.&._ W W W W V 9 9 V W ^ k.k.u.4.4.4.4.4.4.4.X.Q Q @ . # 9 9 N W W ",
"9 9 9 9 9 9 9 y W W W W W W W W W E W W W W W N 9 9 N Q ~ h.z.p.4.4.4.4.4.4.4.| W W &   & 0 0 A W W ",
"9 9 9 9 9 9 9 w W W W W W W W W W ^ W W W W W N 9 9 N W ~ z.g.p.6.6.4.4.4.4.6.| W W #   @ 0 9 S W W ",
"9 9 4 * * * * : x x x x x x x x x x x x z z z q = * n W ~ o.+.| { { { { { { { ( E Q X X X # # , 5 5 ",
"9 9 >         o 9 9 9 9 9 9 9 9 9 9 9 9 9 9 9 1     c Q W W W ~ W W W W W W W W Q Q @ .   . .       ",
"9 9 1         o 9 9 9 9 9 9 9 9 9 9 9 9 9 9 9 1     c E W W W W W W W W W W Q Q W W @ . .           ",
"9 9 x W W W W D                   X                     X     = 9 9 9 9 9 9 9 =             . .     ",
"9 9 x W Q Q E V               X                         X     = 9 9 9 9 9 9 9 =       .   . . .     ",
"z z L o.O.&.:.#.w < 0 5 5 - * &     # * * 5 5 5 < w < 9 5 5 5 w z z z z z z z 0 5 0 * # - e , e h h ",
"W W O.k.k.G.L.G.W W W W W y 9 6     > 9 9 E W W K Q W W W W W W W W W W W W Q Q W W y 9 a W W +.4.4.",
"W W O.k.k.G.L.F.W W W W Q y 9 6   X > 9 0 E W W E Q W Q W W W W W W W W W W Q W W W y 9 a W W +.4.4.",
"W W [ 9.w.k.m.k.W W W Q Q y 9 6     w V V 6.w.f.M.M.M.B.B.B.M.B.B.B.M.C.n.w.0. .W W q 9 a Q W ( _ _ ",
"W W { 4.4.f.k.a.W W W Q W y 9 6     s W W g.g.m.L.L.L.L.L.L.L.L.L.L.L.L.H.k.k.%.W W y 9 l W W W W W ",
"W W { 4.4.a.g.a.V D H K E i 9 6     s W W g.b.S.K.H.H.K.H.K.H.H.H.H.H.H.H.b.b.&.W W y 9 s D D D D D ",
"W W { 4.4.4.6.$.  . = q 9 9 9 6     s W E K.L.S.1.1.1.7.:.6.:.1.4.4.4.4.w.L.L.q.W W q 9 2 .         ",
"W W [ 6.3.6.4.$.. . = 9 9 9 9 6     s W W H.L.S.3.6.6.1.1.6.6.6.4.4.4.4.r.L.L.q.W W y 9 2 . . .     ",
"W W ) o.o.| | [ e 0 d v v v c p     s W W S.S.v.6.1.7.1.6.1.7.1.4.4.4.4.w.S.S.,.W W y 9 0 e w e w w ",
"W W W W W W W W W W W W W W W v     s W W f.z.f.1.4.4.4.4.4.4.4.4.4.4.4.4.z.z.+.Q W q 9 l W W W W W ",
"W W W W W W W W W W W W W W E S     s W Q f.h.f.4.4.4.4.4.4.4.4.4.4.4.4.9.k.k.@.W W y 9 l W W W Q E ",
"y y y y y y y C a.a.a.a.p.) W A     s W Q f.k.u.4.4.4.4.4.4.4.4.4.4.4.4.9.g.k.%.W W y 9 l W W =.p.p.",
"9 9 9 9 9 9 9 g k.k.k.k.k.` W N     s W W f.k.f.4.4.4.4.4.4.4.4.4.4.4.4.9.k.k.%.W W y 9 l W Q 2.k.k.",
"l l l l l l l Z k.k.k.k.k._ Q A     s Q Q h.z.u.4.4.4.4.4.4.4.4.4.4.4.4.w.h.k.%.W W 8 4 t W W 0.b.M.",
"W W W W W W W ( k.k.k.k.k._ W N     s E W h.h.f.4.4.4.4.4.4.4.4.4.4.4.4.7.z.k.%.W W #   , W W k.L.L.",
"W W W W W W W ( k.k.k.k.z.` W m X   s W W g.h.f.4.4.4.4.4.1.1.1.4.4.4.4.w.h.h.@.W W #   , W W j.L.L.",
"W W | l.j.j.j.j.k.k.k.k.z.` K H > > v W W 9.y.w.4.4.4.4.4.f.f.z.A.M.A.M.A.D.D.3.W W X X , W W e.C.C.",
"Q E ,.L.L.L.L.K.k.k.k.k.k.` Q D 9 9 M Q W 3.4.4.4.4.4.4.4.k.z.C.L.L.L.L.L.L.L.q.W W $ . , W W :.k.k.",
"W Q =.L.L.L.L.K.k.k.k.k.k.) W D 9 9 M Q Q :.4.4.4.4.4.4.4.k.k.C.L.L.L.L.L.L.L.q.W W #   , W Q 3.k.z."
};
